  0
SECTION
  2
TABLES
  0
TABLE
  2
LAYER
 70
     2
  0
LAYER
  6
CONTINUOUS
 70
    64
  2
MYLAYER1
 62
    16
  0
LAYER
  6
CONTINUOUS
 70
    64
  2
MYLAYER2
 62
     8
  0
ENDTAB
  0
ENDSEC
  0
SECTION
  2
BLOCKS
  0
BLOCK
  8
0
  2
MyBlock
 70
     0
 10
0
 20
0
 30
0
  0
3DFACE
  5
1
  8
MYLAYER1
 10
0
 20
1
 30
0
 11
0
 21
0.92388
 31
0.382683
 12
0.382683
 22
0.92388
 32
0
 13
0.382683
 23
0.92388
 33
0
  0
3DFACE
  5
2
  8
MYLAYER1
 10
0
 20
0.92388
 30
0.382683
 11
0
 21
0.707107
 31
0.707107
 12
0.408248
 22
0.816497
 32
0.408248
 13
0.408248
 23
0.816497
 33
0.408248
  0
3DFACE
  5
3
  8
MYLAYER1
 10
0.382683
 20
0.92388
 30
0
 11
0
 21
0.92388
 31
0.382683
 12
0.408248
 22
0.816497
 32
0.408248
 13
0.408248
 23
0.816497
 33
0.408248
  0
3DFACE
  5
4
  8
MYLAYER1
 10
0.382683
 20
0.92388
 30
0
 11
0.408248
 21
0.816497
 31
0.408248
 12
0.707107
 22
0.707107
 32
0
 13
0.707107
 23
0.707107
 33
0
  0
3DFACE
  5
5
  8
MYLAYER1
 10
0
 20
0.707107
 30
0.707107
 11
0
 21
0.382683
 31
0.92388
 12
0.408248
 22
0.408248
 32
0.816497
 13
0.408248
 23
0.408248
 33
0.816497
  0
3DFACE
  5
6
  8
MYLAYER1
 10
0
 20
0.382683
 30
0.92388
 11
0
 21
0
 31
1
 12
0.382683
 22
0
 32
0.92388
 13
0.382683
 23
0
 33
0.92388
  0
3DFACE
  5
7
  8
MYLAYER1
 10
0.408248
 20
0.408248
 30
0.816497
 11
0
 21
0.382683
 31
0.92388
 12
0.382683
 22
0
 32
0.92388
 13
0.382683
 23
0
 33
0.92388
  0
3DFACE
  5
8
  8
MYLAYER1
 10
0.408248
 20
0.408248
 30
0.816497
 11
0.382683
 21
0
 31
0.92388
 12
0.707107
 22
0
 32
0.707107
 13
0.707107
 23
0
 33
0.707107
  0
3DFACE
  5
9
  8
MYLAYER1
 10
0.707107
 20
0.707107
 30
0
 11
0.408248
 21
0.816497
 31
0.408248
 12
0.816497
 22
0.408248
 32
0.408248
 13
0.816497
 23
0.408248
 33
0.408248
  0
3DFACE
  5
a
  8
MYLAYER1
 10
0.408248
 20
0.816497
 30
0.408248
 11
0
 21
0.707107
 31
0.707107
 12
0.408248
 22
0.408248
 32
0.816497
 13
0.408248
 23
0.408248
 33
0.816497
  0
3DFACE
  5
b
  8
MYLAYER1
 10
0.816497
 20
0.408248
 30
0.408248
 11
0.408248
 21
0.816497
 31
0.408248
 12
0.408248
 22
0.408248
 32
0.816497
 13
0.408248
 23
0.408248
 33
0.816497
  0
3DFACE
  5
c
  8
MYLAYER1
 10
0.816497
 20
0.408248
 30
0.408248
 11
0.408248
 21
0.408248
 31
0.816497
 12
0.707107
 22
0
 32
0.707107
 13
0.707107
 23
0
 33
0.707107
  0
3DFACE
  5
d
  8
MYLAYER1
 10
0.707107
 20
0.707107
 30
0
 11
0.816497
 21
0.408248
 31
0.408248
 12
0.92388
 22
0.382683
 32
0
 13
0.92388
 23
0.382683
 33
0
  0
3DFACE
  5
e
  8
MYLAYER1
 10
0.816497
 20
0.408248
 30
0.408248
 11
0.707107
 21
0
 31
0.707107
 12
0.92388
 22
0
 32
0.382683
 13
0.92388
 23
0
 33
0.382683
  0
3DFACE
  5
f
  8
MYLAYER1
 10
0.92388
 20
0.382683
 30
0
 11
0.816497
 21
0.408248
 31
0.408248
 12
0.92388
 22
0
 32
0.382683
 13
0.92388
 23
0
 33
0.382683
  0
3DFACE
  5
10
  8
MYLAYER1
 10
0.92388
 20
0.382683
 30
0
 11
0.92388
 21
0
 31
0.382683
 12
1
 22
0
 32
0
 13
1
 23
0
 33
0
  0
3DFACE
  5
11
  8
MYLAYER1
 10
-1
 20
0
 30
0
 11
-0.92388
 21
0
 31
0.382683
 12
-0.92388
 22
0.382683
 32
0
 13
-0.92388
 23
0.382683
 33
0
  0
3DFACE
  5
12
  8
MYLAYER1
 10
-0.92388
 20
0
 30
0.382683
 11
-0.707107
 21
0
 31
0.707107
 12
-0.816497
 22
0.408248
 32
0.408248
 13
-0.816497
 23
0.408248
 33
0.408248
  0
3DFACE
  5
13
  8
MYLAYER1
 10
-0.92388
 20
0.382683
 30
0
 11
-0.92388
 21
0
 31
0.382683
 12
-0.816497
 22
0.408248
 32
0.408248
 13
-0.816497
 23
0.408248
 33
0.408248
  0
3DFACE
  5
14
  8
MYLAYER1
 10
-0.92388
 20
0.382683
 30
0
 11
-0.816497
 21
0.408248
 31
0.408248
 12
-0.707107
 22
0.707107
 32
0
 13
-0.707107
 23
0.707107
 33
0
  0
3DFACE
  5
15
  8
MYLAYER1
 10
-0.707107
 20
0
 30
0.707107
 11
-0.382683
 21
0
 31
0.92388
 12
-0.408248
 22
0.408248
 32
0.816497
 13
-0.408248
 23
0.408248
 33
0.816497
  0
3DFACE
  5
16
  8
MYLAYER1
 10
-0.382683
 20
0
 30
0.92388
 11
0
 21
0
 31
1
 12
0
 22
0.382683
 32
0.92388
 13
0
 23
0.382683
 33
0.92388
  0
3DFACE
  5
17
  8
MYLAYER1
 10
-0.408248
 20
0.408248
 30
0.816497
 11
-0.382683
 21
0
 31
0.92388
 12
0
 22
0.382683
 32
0.92388
 13
0
 23
0.382683
 33
0.92388
  0
3DFACE
  5
18
  8
MYLAYER1
 10
-0.408248
 20
0.408248
 30
0.816497
 11
0
 21
0.382683
 31
0.92388
 12
0
 22
0.707107
 32
0.707107
 13
0
 23
0.707107
 33
0.707107
  0
3DFACE
  5
19
  8
MYLAYER1
 10
-0.707107
 20
0.707107
 30
0
 11
-0.816497
 21
0.408248
 31
0.408248
 12
-0.408248
 22
0.816497
 32
0.408248
 13
-0.408248
 23
0.816497
 33
0.408248
  0
3DFACE
  5
1a
  8
MYLAYER1
 10
-0.816497
 20
0.408248
 30
0.408248
 11
-0.707107
 21
0
 31
0.707107
 12
-0.408248
 22
0.408248
 32
0.816497
 13
-0.408248
 23
0.408248
 33
0.816497
  0
3DFACE
  5
1b
  8
MYLAYER1
 10
-0.408248
 20
0.816497
 30
0.408248
 11
-0.816497
 21
0.408248
 31
0.408248
 12
-0.408248
 22
0.408248
 32
0.816497
 13
-0.408248
 23
0.408248
 33
0.816497
  0
3DFACE
  5
1c
  8
MYLAYER1
 10
-0.408248
 20
0.816497
 30
0.408248
 11
-0.408248
 21
0.408248
 31
0.816497
 12
0
 22
0.707107
 32
0.707107
 13
0
 23
0.707107
 33
0.707107
  0
3DFACE
  5
1d
  8
MYLAYER1
 10
-0.707107
 20
0.707107
 30
0
 11
-0.408248
 21
0.816497
 31
0.408248
 12
-0.382683
 22
0.92388
 32
0
 13
-0.382683
 23
0.92388
 33
0
  0
3DFACE
  5
1e
  8
MYLAYER1
 10
-0.408248
 20
0.816497
 30
0.408248
 11
0
 21
0.707107
 31
0.707107
 12
0
 22
0.92388
 32
0.382683
 13
0
 23
0.92388
 33
0.382683
  0
3DFACE
  5
1f
  8
MYLAYER1
 10
-0.382683
 20
0.92388
 30
0
 11
-0.408248
 21
0.816497
 31
0.408248
 12
0
 22
0.92388
 32
0.382683
 13
0
 23
0.92388
 33
0.382683
  0
3DFACE
  5
20
  8
MYLAYER1
 10
-0.382683
 20
0.92388
 30
0
 11
0
 21
0.92388
 31
0.382683
 12
0
 22
1
 32
0
 13
0
 23
1
 33
0
  0
3DFACE
  5
21
  8
MYLAYER1
 10
0
 20
-1
 30
0
 11
0
 21
-0.92388
 31
0.382683
 12
-0.382683
 22
-0.92388
 32
0
 13
-0.382683
 23
-0.92388
 33
0
  0
3DFACE
  5
22
  8
MYLAYER1
 10
0
 20
-0.92388
 30
0.382683
 11
0
 21
-0.707107
 31
0.707107
 12
-0.408248
 22
-0.816497
 32
0.408248
 13
-0.408248
 23
-0.816497
 33
0.408248
  0
3DFACE
  5
23
  8
MYLAYER1
 10
-0.382683
 20
-0.92388
 30
0
 11
0
 21
-0.92388
 31
0.382683
 12
-0.408248
 22
-0.816497
 32
0.408248
 13
-0.408248
 23
-0.816497
 33
0.408248
  0
3DFACE
  5
24
  8
MYLAYER1
 10
-0.382683
 20
-0.92388
 30
0
 11
-0.408248
 21
-0.816497
 31
0.408248
 12
-0.707107
 22
-0.707107
 32
0
 13
-0.707107
 23
-0.707107
 33
0
  0
3DFACE
  5
25
  8
MYLAYER1
 10
0
 20
-0.707107
 30
0.707107
 11
0
 21
-0.382683
 31
0.92388
 12
-0.408248
 22
-0.408248
 32
0.816497
 13
-0.408248
 23
-0.408248
 33
0.816497
  0
3DFACE
  5
26
  8
MYLAYER1
 10
0
 20
-0.382683
 30
0.92388
 11
0
 21
0
 31
1
 12
-0.382683
 22
0
 32
0.92388
 13
-0.382683
 23
0
 33
0.92388
  0
3DFACE
  5
27
  8
MYLAYER1
 10
-0.408248
 20
-0.408248
 30
0.816497
 11
0
 21
-0.382683
 31
0.92388
 12
-0.382683
 22
0
 32
0.92388
 13
-0.382683
 23
0
 33
0.92388
  0
3DFACE
  5
28
  8
MYLAYER1
 10
-0.408248
 20
-0.408248
 30
0.816497
 11
-0.382683
 21
0
 31
0.92388
 12
-0.707107
 22
0
 32
0.707107
 13
-0.707107
 23
0
 33
0.707107
  0
3DFACE
  5
29
  8
MYLAYER1
 10
-0.707107
 20
-0.707107
 30
0
 11
-0.408248
 21
-0.816497
 31
0.408248
 12
-0.816497
 22
-0.408248
 32
0.408248
 13
-0.816497
 23
-0.408248
 33
0.408248
  0
3DFACE
  5
2a
  8
MYLAYER1
 10
-0.408248
 20
-0.816497
 30
0.408248
 11
0
 21
-0.707107
 31
0.707107
 12
-0.408248
 22
-0.408248
 32
0.816497
 13
-0.408248
 23
-0.408248
 33
0.816497
  0
3DFACE
  5
2b
  8
MYLAYER1
 10
-0.816497
 20
-0.408248
 30
0.408248
 11
-0.408248
 21
-0.816497
 31
0.408248
 12
-0.408248
 22
-0.408248
 32
0.816497
 13
-0.408248
 23
-0.408248
 33
0.816497
  0
3DFACE
  5
2c
  8
MYLAYER1
 10
-0.816497
 20
-0.408248
 30
0.408248
 11
-0.408248
 21
-0.408248
 31
0.816497
 12
-0.707107
 22
0
 32
0.707107
 13
-0.707107
 23
0
 33
0.707107
  0
3DFACE
  5
2d
  8
MYLAYER1
 10
-0.707107
 20
-0.707107
 30
0
 11
-0.816497
 21
-0.408248
 31
0.408248
 12
-0.92388
 22
-0.382683
 32
0
 13
-0.92388
 23
-0.382683
 33
0
  0
3DFACE
  5
2e
  8
MYLAYER1
 10
-0.816497
 20
-0.408248
 30
0.408248
 11
-0.707107
 21
0
 31
0.707107
 12
-0.92388
 22
0
 32
0.382683
 13
-0.92388
 23
0
 33
0.382683
  0
3DFACE
  5
2f
  8
MYLAYER1
 10
-0.92388
 20
-0.382683
 30
0
 11
-0.816497
 21
-0.408248
 31
0.408248
 12
-0.92388
 22
0
 32
0.382683
 13
-0.92388
 23
0
 33
0.382683
  0
3DFACE
  5
30
  8
MYLAYER1
 10
-0.92388
 20
-0.382683
 30
0
 11
-0.92388
 21
0
 31
0.382683
 12
-1
 22
0
 32
0
 13
-1
 23
0
 33
0
  0
3DFACE
  5
31
  8
MYLAYER1
 10
1
 20
0
 30
0
 11
0.92388
 21
0
 31
0.382683
 12
0.92388
 22
-0.382683
 32
0
 13
0.92388
 23
-0.382683
 33
0
  0
3DFACE
  5
32
  8
MYLAYER1
 10
0.92388
 20
0
 30
0.382683
 11
0.707107
 21
0
 31
0.707107
 12
0.816497
 22
-0.408248
 32
0.408248
 13
0.816497
 23
-0.408248
 33
0.408248
  0
3DFACE
  5
33
  8
MYLAYER1
 10
0.92388
 20
-0.382683
 30
0
 11
0.92388
 21
0
 31
0.382683
 12
0.816497
 22
-0.408248
 32
0.408248
 13
0.816497
 23
-0.408248
 33
0.408248
  0
3DFACE
  5
34
  8
MYLAYER1
 10
0.92388
 20
-0.382683
 30
0
 11
0.816497
 21
-0.408248
 31
0.408248
 12
0.707107
 22
-0.707107
 32
0
 13
0.707107
 23
-0.707107
 33
0
  0
3DFACE
  5
35
  8
MYLAYER1
 10
0.707107
 20
0
 30
0.707107
 11
0.382683
 21
0
 31
0.92388
 12
0.408248
 22
-0.408248
 32
0.816497
 13
0.408248
 23
-0.408248
 33
0.816497
  0
3DFACE
  5
36
  8
MYLAYER1
 10
0.382683
 20
0
 30
0.92388
 11
0
 21
0
 31
1
 12
0
 22
-0.382683
 32
0.92388
 13
0
 23
-0.382683
 33
0.92388
  0
3DFACE
  5
37
  8
MYLAYER1
 10
0.408248
 20
-0.408248
 30
0.816497
 11
0.382683
 21
0
 31
0.92388
 12
0
 22
-0.382683
 32
0.92388
 13
0
 23
-0.382683
 33
0.92388
  0
3DFACE
  5
38
  8
MYLAYER1
 10
0.408248
 20
-0.408248
 30
0.816497
 11
0
 21
-0.382683
 31
0.92388
 12
0
 22
-0.707107
 32
0.707107
 13
0
 23
-0.707107
 33
0.707107
  0
3DFACE
  5
39
  8
MYLAYER1
 10
0.707107
 20
-0.707107
 30
0
 11
0.816497
 21
-0.408248
 31
0.408248
 12
0.408248
 22
-0.816497
 32
0.408248
 13
0.408248
 23
-0.816497
 33
0.408248
  0
3DFACE
  5
3a
  8
MYLAYER1
 10
0.816497
 20
-0.408248
 30
0.408248
 11
0.707107
 21
0
 31
0.707107
 12
0.408248
 22
-0.408248
 32
0.816497
 13
0.408248
 23
-0.408248
 33
0.816497
  0
3DFACE
  5
3b
  8
MYLAYER1
 10
0.408248
 20
-0.816497
 30
0.408248
 11
0.816497
 21
-0.408248
 31
0.408248
 12
0.408248
 22
-0.408248
 32
0.816497
 13
0.408248
 23
-0.408248
 33
0.816497
  0
3DFACE
  5
3c
  8
MYLAYER1
 10
0.408248
 20
-0.816497
 30
0.408248
 11
0.408248
 21
-0.408248
 31
0.816497
 12
0
 22
-0.707107
 32
0.707107
 13
0
 23
-0.707107
 33
0.707107
  0
3DFACE
  5
3d
  8
MYLAYER1
 10
0.707107
 20
-0.707107
 30
0
 11
0.408248
 21
-0.816497
 31
0.408248
 12
0.382683
 22
-0.92388
 32
0
 13
0.382683
 23
-0.92388
 33
0
  0
3DFACE
  5
3e
  8
MYLAYER1
 10
0.408248
 20
-0.816497
 30
0.408248
 11
0
 21
-0.707107
 31
0.707107
 12
0
 22
-0.92388
 32
0.382683
 13
0
 23
-0.92388
 33
0.382683
  0
3DFACE
  5
3f
  8
MYLAYER1
 10
0.382683
 20
-0.92388
 30
0
 11
0.408248
 21
-0.816497
 31
0.408248
 12
0
 22
-0.92388
 32
0.382683
 13
0
 23
-0.92388
 33
0.382683
  0
3DFACE
  5
40
  8
MYLAYER1
 10
0.382683
 20
-0.92388
 30
0
 11
0
 21
-0.92388
 31
0.382683
 12
0
 22
-1
 32
0
 13
0
 23
-1
 33
0
  0
3DFACE
  5
41
  8
MYLAYER1
 10
0
 20
0
 30
-1
 11
0
 21
0.382683
 31
-0.92388
 12
0.382683
 22
0
 32
-0.92388
 13
0.382683
 23
0
 33
-0.92388
  0
3DFACE
  5
42
  8
MYLAYER1
 10
0
 20
0.382683
 30
-0.92388
 11
0
 21
0.707107
 31
-0.707107
 12
0.408248
 22
0.408248
 32
-0.816497
 13
0.408248
 23
0.408248
 33
-0.816497
  0
3DFACE
  5
43
  8
MYLAYER1
 10
0.382683
 20
0
 30
-0.92388
 11
0
 21
0.382683
 31
-0.92388
 12
0.408248
 22
0.408248
 32
-0.816497
 13
0.408248
 23
0.408248
 33
-0.816497
  0
3DFACE
  5
44
  8
MYLAYER1
 10
0.382683
 20
0
 30
-0.92388
 11
0.408248
 21
0.408248
 31
-0.816497
 12
0.707107
 22
0
 32
-0.707107
 13
0.707107
 23
0
 33
-0.707107
  0
3DFACE
  5
45
  8
MYLAYER1
 10
0
 20
0.707107
 30
-0.707107
 11
0
 21
0.92388
 31
-0.382683
 12
0.408248
 22
0.816497
 32
-0.408248
 13
0.408248
 23
0.816497
 33
-0.408248
  0
3DFACE
  5
46
  8
MYLAYER1
 10
0
 20
0.92388
 30
-0.382683
 11
0
 21
1
 31
0
 12
0.382683
 22
0.92388
 32
0
 13
0.382683
 23
0.92388
 33
0
  0
3DFACE
  5
47
  8
MYLAYER1
 10
0.408248
 20
0.816497
 30
-0.408248
 11
0
 21
0.92388
 31
-0.382683
 12
0.382683
 22
0.92388
 32
0
 13
0.382683
 23
0.92388
 33
0
  0
3DFACE
  5
48
  8
MYLAYER1
 10
0.408248
 20
0.816497
 30
-0.408248
 11
0.382683
 21
0.92388
 31
0
 12
0.707107
 22
0.707107
 32
0
 13
0.707107
 23
0.707107
 33
0
  0
3DFACE
  5
49
  8
MYLAYER1
 10
0.707107
 20
0
 30
-0.707107
 11
0.408248
 21
0.408248
 31
-0.816497
 12
0.816497
 22
0.408248
 32
-0.408248
 13
0.816497
 23
0.408248
 33
-0.408248
  0
3DFACE
  5
4a
  8
MYLAYER1
 10
0.408248
 20
0.408248
 30
-0.816497
 11
0
 21
0.707107
 31
-0.707107
 12
0.408248
 22
0.816497
 32
-0.408248
 13
0.408248
 23
0.816497
 33
-0.408248
  0
3DFACE
  5
4b
  8
MYLAYER1
 10
0.816497
 20
0.408248
 30
-0.408248
 11
0.408248
 21
0.408248
 31
-0.816497
 12
0.408248
 22
0.816497
 32
-0.408248
 13
0.408248
 23
0.816497
 33
-0.408248
  0
3DFACE
  5
4c
  8
MYLAYER1
 10
0.816497
 20
0.408248
 30
-0.408248
 11
0.408248
 21
0.816497
 31
-0.408248
 12
0.707107
 22
0.707107
 32
0
 13
0.707107
 23
0.707107
 33
0
  0
3DFACE
  5
4d
  8
MYLAYER1
 10
0.707107
 20
0
 30
-0.707107
 11
0.816497
 21
0.408248
 31
-0.408248
 12
0.92388
 22
0
 32
-0.382683
 13
0.92388
 23
0
 33
-0.382683
  0
3DFACE
  5
4e
  8
MYLAYER1
 10
0.816497
 20
0.408248
 30
-0.408248
 11
0.707107
 21
0.707107
 31
0
 12
0.92388
 22
0.382683
 32
0
 13
0.92388
 23
0.382683
 33
0
  0
3DFACE
  5
4f
  8
MYLAYER1
 10
0.92388
 20
0
 30
-0.382683
 11
0.816497
 21
0.408248
 31
-0.408248
 12
0.92388
 22
0.382683
 32
0
 13
0.92388
 23
0.382683
 33
0
  0
3DFACE
  5
50
  8
MYLAYER1
 10
0.92388
 20
0
 30
-0.382683
 11
0.92388
 21
0.382683
 31
0
 12
1
 22
0
 32
0
 13
1
 23
0
 33
0
  0
3DFACE
  5
51
  8
MYLAYER1
 10
0
 20
0
 30
-1
 11
-0.382683
 21
0
 31
-0.92388
 12
0
 22
0.382683
 32
-0.92388
 13
0
 23
0.382683
 33
-0.92388
  0
3DFACE
  5
52
  8
MYLAYER1
 10
-0.382683
 20
0
 30
-0.92388
 11
-0.707107
 21
0
 31
-0.707107
 12
-0.408248
 22
0.408248
 32
-0.816497
 13
-0.408248
 23
0.408248
 33
-0.816497
  0
3DFACE
  5
53
  8
MYLAYER1
 10
0
 20
0.382683
 30
-0.92388
 11
-0.382683
 21
0
 31
-0.92388
 12
-0.408248
 22
0.408248
 32
-0.816497
 13
-0.408248
 23
0.408248
 33
-0.816497
  0
3DFACE
  5
54
  8
MYLAYER1
 10
0
 20
0.382683
 30
-0.92388
 11
-0.408248
 21
0.408248
 31
-0.816497
 12
0
 22
0.707107
 32
-0.707107
 13
0
 23
0.707107
 33
-0.707107
  0
3DFACE
  5
55
  8
MYLAYER1
 10
-0.707107
 20
0
 30
-0.707107
 11
-0.92388
 21
0
 31
-0.382683
 12
-0.816497
 22
0.408248
 32
-0.408248
 13
-0.816497
 23
0.408248
 33
-0.408248
  0
3DFACE
  5
56
  8
MYLAYER1
 10
-0.92388
 20
0
 30
-0.382683
 11
-1
 21
0
 31
0
 12
-0.92388
 22
0.382683
 32
0
 13
-0.92388
 23
0.382683
 33
0
  0
3DFACE
  5
57
  8
MYLAYER1
 10
-0.816497
 20
0.408248
 30
-0.408248
 11
-0.92388
 21
0
 31
-0.382683
 12
-0.92388
 22
0.382683
 32
0
 13
-0.92388
 23
0.382683
 33
0
  0
3DFACE
  5
58
  8
MYLAYER1
 10
-0.816497
 20
0.408248
 30
-0.408248
 11
-0.92388
 21
0.382683
 31
0
 12
-0.707107
 22
0.707107
 32
0
 13
-0.707107
 23
0.707107
 33
0
  0
3DFACE
  5
59
  8
MYLAYER1
 10
0
 20
0.707107
 30
-0.707107
 11
-0.408248
 21
0.408248
 31
-0.816497
 12
-0.408248
 22
0.816497
 32
-0.408248
 13
-0.408248
 23
0.816497
 33
-0.408248
  0
3DFACE
  5
5a
  8
MYLAYER1
 10
-0.408248
 20
0.408248
 30
-0.816497
 11
-0.707107
 21
0
 31
-0.707107
 12
-0.816497
 22
0.408248
 32
-0.408248
 13
-0.816497
 23
0.408248
 33
-0.408248
  0
3DFACE
  5
5b
  8
MYLAYER1
 10
-0.408248
 20
0.816497
 30
-0.408248
 11
-0.408248
 21
0.408248
 31
-0.816497
 12
-0.816497
 22
0.408248
 32
-0.408248
 13
-0.816497
 23
0.408248
 33
-0.408248
  0
3DFACE
  5
5c
  8
MYLAYER1
 10
-0.408248
 20
0.816497
 30
-0.408248
 11
-0.816497
 21
0.408248
 31
-0.408248
 12
-0.707107
 22
0.707107
 32
0
 13
-0.707107
 23
0.707107
 33
0
  0
3DFACE
  5
5d
  8
MYLAYER1
 10
0
 20
0.707107
 30
-0.707107
 11
-0.408248
 21
0.816497
 31
-0.408248
 12
0
 22
0.92388
 32
-0.382683
 13
0
 23
0.92388
 33
-0.382683
  0
3DFACE
  5
5e
  8
MYLAYER1
 10
-0.408248
 20
0.816497
 30
-0.408248
 11
-0.707107
 21
0.707107
 31
0
 12
-0.382683
 22
0.92388
 32
0
 13
-0.382683
 23
0.92388
 33
0
  0
3DFACE
  5
5f
  8
MYLAYER1
 10
0
 20
0.92388
 30
-0.382683
 11
-0.408248
 21
0.816497
 31
-0.408248
 12
-0.382683
 22
0.92388
 32
0
 13
-0.382683
 23
0.92388
 33
0
  0
3DFACE
  5
60
  8
MYLAYER1
 10
0
 20
0.92388
 30
-0.382683
 11
-0.382683
 21
0.92388
 31
0
 12
0
 22
1
 32
0
 13
0
 23
1
 33
0
  0
3DFACE
  5
61
  8
MYLAYER1
 10
0
 20
0
 30
-1
 11
0
 21
-0.382683
 31
-0.92388
 12
-0.382683
 22
0
 32
-0.92388
 13
-0.382683
 23
0
 33
-0.92388
  0
3DFACE
  5
62
  8
MYLAYER1
 10
0
 20
-0.382683
 30
-0.92388
 11
0
 21
-0.707107
 31
-0.707107
 12
-0.408248
 22
-0.408248
 32
-0.816497
 13
-0.408248
 23
-0.408248
 33
-0.816497
  0
3DFACE
  5
63
  8
MYLAYER1
 10
-0.382683
 20
0
 30
-0.92388
 11
0
 21
-0.382683
 31
-0.92388
 12
-0.408248
 22
-0.408248
 32
-0.816497
 13
-0.408248
 23
-0.408248
 33
-0.816497
  0
3DFACE
  5
64
  8
MYLAYER1
 10
-0.382683
 20
0
 30
-0.92388
 11
-0.408248
 21
-0.408248
 31
-0.816497
 12
-0.707107
 22
0
 32
-0.707107
 13
-0.707107
 23
0
 33
-0.707107
  0
3DFACE
  5
65
  8
MYLAYER1
 10
0
 20
-0.707107
 30
-0.707107
 11
0
 21
-0.92388
 31
-0.382683
 12
-0.408248
 22
-0.816497
 32
-0.408248
 13
-0.408248
 23
-0.816497
 33
-0.408248
  0
3DFACE
  5
66
  8
MYLAYER1
 10
0
 20
-0.92388
 30
-0.382683
 11
0
 21
-1
 31
0
 12
-0.382683
 22
-0.92388
 32
0
 13
-0.382683
 23
-0.92388
 33
0
  0
3DFACE
  5
67
  8
MYLAYER1
 10
-0.408248
 20
-0.816497
 30
-0.408248
 11
0
 21
-0.92388
 31
-0.382683
 12
-0.382683
 22
-0.92388
 32
0
 13
-0.382683
 23
-0.92388
 33
0
  0
3DFACE
  5
68
  8
MYLAYER1
 10
-0.408248
 20
-0.816497
 30
-0.408248
 11
-0.382683
 21
-0.92388
 31
0
 12
-0.707107
 22
-0.707107
 32
0
 13
-0.707107
 23
-0.707107
 33
0
  0
3DFACE
  5
69
  8
MYLAYER1
 10
-0.707107
 20
0
 30
-0.707107
 11
-0.408248
 21
-0.408248
 31
-0.816497
 12
-0.816497
 22
-0.408248
 32
-0.408248
 13
-0.816497
 23
-0.408248
 33
-0.408248
  0
3DFACE
  5
6a
  8
MYLAYER1
 10
-0.408248
 20
-0.408248
 30
-0.816497
 11
0
 21
-0.707107
 31
-0.707107
 12
-0.408248
 22
-0.816497
 32
-0.408248
 13
-0.408248
 23
-0.816497
 33
-0.408248
  0
3DFACE
  5
6b
  8
MYLAYER1
 10
-0.816497
 20
-0.408248
 30
-0.408248
 11
-0.408248
 21
-0.408248
 31
-0.816497
 12
-0.408248
 22
-0.816497
 32
-0.408248
 13
-0.408248
 23
-0.816497
 33
-0.408248
  0
3DFACE
  5
6c
  8
MYLAYER1
 10
-0.816497
 20
-0.408248
 30
-0.408248
 11
-0.408248
 21
-0.816497
 31
-0.408248
 12
-0.707107
 22
-0.707107
 32
0
 13
-0.707107
 23
-0.707107
 33
0
  0
3DFACE
  5
6d
  8
MYLAYER1
 10
-0.707107
 20
0
 30
-0.707107
 11
-0.816497
 21
-0.408248
 31
-0.408248
 12
-0.92388
 22
0
 32
-0.382683
 13
-0.92388
 23
0
 33
-0.382683
  0
3DFACE
  5
6e
  8
MYLAYER1
 10
-0.816497
 20
-0.408248
 30
-0.408248
 11
-0.707107
 21
-0.707107
 31
0
 12
-0.92388
 22
-0.382683
 32
0
 13
-0.92388
 23
-0.382683
 33
0
  0
3DFACE
  5
6f
  8
MYLAYER1
 10
-0.92388
 20
0
 30
-0.382683
 11
-0.816497
 21
-0.408248
 31
-0.408248
 12
-0.92388
 22
-0.382683
 32
0
 13
-0.92388
 23
-0.382683
 33
0
  0
3DFACE
  5
70
  8
MYLAYER1
 10
-0.92388
 20
0
 30
-0.382683
 11
-0.92388
 21
-0.382683
 31
0
 12
-1
 22
0
 32
0
 13
-1
 23
0
 33
0
  0
3DFACE
  5
71
  8
MYLAYER1
 10
0
 20
0
 30
-1
 11
0.382683
 21
0
 31
-0.92388
 12
0
 22
-0.382683
 32
-0.92388
 13
0
 23
-0.382683
 33
-0.92388
  0
3DFACE
  5
72
  8
MYLAYER1
 10
0.382683
 20
0
 30
-0.92388
 11
0.707107
 21
0
 31
-0.707107
 12
0.408248
 22
-0.408248
 32
-0.816497
 13
0.408248
 23
-0.408248
 33
-0.816497
  0
3DFACE
  5
73
  8
MYLAYER1
 10
0
 20
-0.382683
 30
-0.92388
 11
0.382683
 21
0
 31
-0.92388
 12
0.408248
 22
-0.408248
 32
-0.816497
 13
0.408248
 23
-0.408248
 33
-0.816497
  0
3DFACE
  5
74
  8
MYLAYER1
 10
0
 20
-0.382683
 30
-0.92388
 11
0.408248
 21
-0.408248
 31
-0.816497
 12
0
 22
-0.707107
 32
-0.707107
 13
0
 23
-0.707107
 33
-0.707107
  0
3DFACE
  5
75
  8
MYLAYER1
 10
0.707107
 20
0
 30
-0.707107
 11
0.92388
 21
0
 31
-0.382683
 12
0.816497
 22
-0.408248
 32
-0.408248
 13
0.816497
 23
-0.408248
 33
-0.408248
  0
3DFACE
  5
76
  8
MYLAYER1
 10
0.92388
 20
0
 30
-0.382683
 11
1
 21
0
 31
0
 12
0.92388
 22
-0.382683
 32
0
 13
0.92388
 23
-0.382683
 33
0
  0
3DFACE
  5
77
  8
MYLAYER1
 10
0.816497
 20
-0.408248
 30
-0.408248
 11
0.92388
 21
0
 31
-0.382683
 12
0.92388
 22
-0.382683
 32
0
 13
0.92388
 23
-0.382683
 33
0
  0
3DFACE
  5
78
  8
MYLAYER1
 10
0.816497
 20
-0.408248
 30
-0.408248
 11
0.92388
 21
-0.382683
 31
0
 12
0.707107
 22
-0.707107
 32
0
 13
0.707107
 23
-0.707107
 33
0
  0
3DFACE
  5
79
  8
MYLAYER1
 10
0
 20
-0.707107
 30
-0.707107
 11
0.408248
 21
-0.408248
 31
-0.816497
 12
0.408248
 22
-0.816497
 32
-0.408248
 13
0.408248
 23
-0.816497
 33
-0.408248
  0
3DFACE
  5
7a
  8
MYLAYER1
 10
0.408248
 20
-0.408248
 30
-0.816497
 11
0.707107
 21
0
 31
-0.707107
 12
0.816497
 22
-0.408248
 32
-0.408248
 13
0.816497
 23
-0.408248
 33
-0.408248
  0
3DFACE
  5
7b
  8
MYLAYER1
 10
0.408248
 20
-0.816497
 30
-0.408248
 11
0.408248
 21
-0.408248
 31
-0.816497
 12
0.816497
 22
-0.408248
 32
-0.408248
 13
0.816497
 23
-0.408248
 33
-0.408248
  0
3DFACE
  5
7c
  8
MYLAYER1
 10
0.408248
 20
-0.816497
 30
-0.408248
 11
0.816497
 21
-0.408248
 31
-0.408248
 12
0.707107
 22
-0.707107
 32
0
 13
0.707107
 23
-0.707107
 33
0
  0
3DFACE
  5
7d
  8
MYLAYER1
 10
0
 20
-0.707107
 30
-0.707107
 11
0.408248
 21
-0.816497
 31
-0.408248
 12
0
 22
-0.92388
 32
-0.382683
 13
0
 23
-0.92388
 33
-0.382683
  0
3DFACE
  5
7e
  8
MYLAYER1
 10
0.408248
 20
-0.816497
 30
-0.408248
 11
0.707107
 21
-0.707107
 31
0
 12
0.382683
 22
-0.92388
 32
0
 13
0.382683
 23
-0.92388
 33
0
  0
3DFACE
  5
7f
  8
MYLAYER1
 10
0
 20
-0.92388
 30
-0.382683
 11
0.408248
 21
-0.816497
 31
-0.408248
 12
0.382683
 22
-0.92388
 32
0
 13
0.382683
 23
-0.92388
 33
0
  0
3DFACE
  5
80
  8
MYLAYER1
 10
0
 20
-0.92388
 30
-0.382683
 11
0.382683
 21
-0.92388
 31
0
 12
0
 22
-1
 32
0
 13
0
 23
-1
 33
0
  0
ENDBLK
  8
0
  0
ENDSEC
  0
SECTION
  2
ENTITIES
  0
INSERT
  8
0
  2
MyBlock
 10
0
 20
0
 30
0
  0
ENDSEC
  0
EOF
