  0
SECTION
  2
TABLES
  0
TABLE
  2
LAYER
 70
     2
  0
LAYER
  6
CONTINUOUS
 70
    64
  2
MYLAYER1
 62
    16
  0
LAYER
  6
CONTINUOUS
 70
    64
  2
MYLAYER2
 62
     8
  0
ENDTAB
  0
ENDSEC
  0
SECTION
  2
ENTITIES
  0
3DFACE
  5
1
  8
MYLAYER1
 10
0
 20
1
 30
0
 11
0
 21
0.980785
 31
0.19509
 12
0.19509
 22
0.980785
 32
0
 13
0.19509
 23
0.980785
 33
0
  0
3DFACE
  5
2
  8
MYLAYER1
 10
0
 20
0.980785
 30
0.19509
 11
0
 21
0.92388
 31
0.382683
 12
0.198757
 22
0.959683
 32
0.198757
 13
0.198757
 23
0.959683
 33
0.198757
  0
3DFACE
  5
3
  8
MYLAYER1
 10
0.19509
 20
0.980785
 30
0
 11
0
 21
0.980785
 31
0.19509
 12
0.198757
 22
0.959683
 32
0.198757
 13
0.198757
 23
0.959683
 33
0.198757
  0
3DFACE
  5
4
  8
MYLAYER1
 10
0.19509
 20
0.980785
 30
0
 11
0.198757
 21
0.959683
 31
0.198757
 12
0.382683
 22
0.92388
 32
0
 13
0.382683
 23
0.92388
 33
0
  0
3DFACE
  5
5
  8
MYLAYER1
 10
0
 20
0.92388
 30
0.382683
 11
0
 21
0.83147
 31
0.55557
 12
0.208847
 22
0.89032
 32
0.404615
 13
0.208847
 23
0.89032
 33
0.404615
  0
3DFACE
  5
6
  8
MYLAYER1
 10
0
 20
0.83147
 30
0.55557
 11
0
 21
0.707107
 31
0.707107
 12
0.211325
 22
0.788675
 32
0.57735
 13
0.211325
 23
0.788675
 33
0.57735
  0
3DFACE
  5
7
  8
MYLAYER1
 10
0.208847
 20
0.89032
 30
0.404615
 11
0
 21
0.83147
 31
0.55557
 12
0.211325
 22
0.788675
 32
0.57735
 13
0.211325
 23
0.788675
 33
0.57735
  0
3DFACE
  5
8
  8
MYLAYER1
 10
0.208847
 20
0.89032
 30
0.404615
 11
0.211325
 21
0.788675
 31
0.57735
 12
0.408248
 22
0.816497
 32
0.408248
 13
0.408248
 23
0.816497
 33
0.408248
  0
3DFACE
  5
9
  8
MYLAYER1
 10
0.382683
 20
0.92388
 30
0
 11
0.198757
 21
0.959683
 31
0.198757
 12
0.404615
 22
0.89032
 32
0.208847
 13
0.404615
 23
0.89032
 33
0.208847
  0
3DFACE
  5
a
  8
MYLAYER1
 10
0.198757
 20
0.959683
 30
0.198757
 11
0
 21
0.92388
 31
0.382683
 12
0.208847
 22
0.89032
 32
0.404615
 13
0.208847
 23
0.89032
 33
0.404615
  0
3DFACE
  5
b
  8
MYLAYER1
 10
0.404615
 20
0.89032
 30
0.208847
 11
0.198757
 21
0.959683
 31
0.198757
 12
0.208847
 22
0.89032
 32
0.404615
 13
0.208847
 23
0.89032
 33
0.404615
  0
3DFACE
  5
c
  8
MYLAYER1
 10
0.404615
 20
0.89032
 30
0.208847
 11
0.208847
 21
0.89032
 31
0.404615
 12
0.408248
 22
0.816497
 32
0.408248
 13
0.408248
 23
0.816497
 33
0.408248
  0
3DFACE
  5
d
  8
MYLAYER1
 10
0.382683
 20
0.92388
 30
0
 11
0.404615
 21
0.89032
 31
0.208847
 12
0.55557
 22
0.83147
 32
0
 13
0.55557
 23
0.83147
 33
0
  0
3DFACE
  5
e
  8
MYLAYER1
 10
0.404615
 20
0.89032
 30
0.208847
 11
0.408248
 21
0.816497
 31
0.408248
 12
0.57735
 22
0.788675
 32
0.211325
 13
0.57735
 23
0.788675
 33
0.211325
  0
3DFACE
  5
f
  8
MYLAYER1
 10
0.55557
 20
0.83147
 30
0
 11
0.404615
 21
0.89032
 31
0.208847
 12
0.57735
 22
0.788675
 32
0.211325
 13
0.57735
 23
0.788675
 33
0.211325
  0
3DFACE
  5
10
  8
MYLAYER1
 10
0.55557
 20
0.83147
 30
0
 11
0.57735
 21
0.788675
 31
0.211325
 12
0.707107
 22
0.707107
 32
0
 13
0.707107
 23
0.707107
 33
0
  0
3DFACE
  5
11
  8
MYLAYER1
 10
0
 20
0.707107
 30
0.707107
 11
0
 21
0.55557
 31
0.83147
 12
0.211325
 22
0.57735
 32
0.788675
 13
0.211325
 23
0.57735
 33
0.788675
  0
3DFACE
  5
12
  8
MYLAYER1
 10
0
 20
0.55557
 30
0.83147
 11
0
 21
0.382683
 31
0.92388
 12
0.208847
 22
0.404615
 32
0.89032
 13
0.208847
 23
0.404615
 33
0.89032
  0
3DFACE
  5
13
  8
MYLAYER1
 10
0.211325
 20
0.57735
 30
0.788675
 11
0
 21
0.55557
 31
0.83147
 12
0.208847
 22
0.404615
 32
0.89032
 13
0.208847
 23
0.404615
 33
0.89032
  0
3DFACE
  5
14
  8
MYLAYER1
 10
0.211325
 20
0.57735
 30
0.788675
 11
0.208847
 21
0.404615
 31
0.89032
 12
0.408248
 22
0.408248
 32
0.816497
 13
0.408248
 23
0.408248
 33
0.816497
  0
3DFACE
  5
15
  8
MYLAYER1
 10
0
 20
0.382683
 30
0.92388
 11
0
 21
0.19509
 31
0.980785
 12
0.198757
 22
0.198757
 32
0.959683
 13
0.198757
 23
0.198757
 33
0.959683
  0
3DFACE
  5
16
  8
MYLAYER1
 10
0
 20
0.19509
 30
0.980785
 11
0
 21
0
 31
1
 12
0.19509
 22
0
 32
0.980785
 13
0.19509
 23
0
 33
0.980785
  0
3DFACE
  5
17
  8
MYLAYER1
 10
0.198757
 20
0.198757
 30
0.959683
 11
0
 21
0.19509
 31
0.980785
 12
0.19509
 22
0
 32
0.980785
 13
0.19509
 23
0
 33
0.980785
  0
3DFACE
  5
18
  8
MYLAYER1
 10
0.198757
 20
0.198757
 30
0.959683
 11
0.19509
 21
0
 31
0.980785
 12
0.382683
 22
0
 32
0.92388
 13
0.382683
 23
0
 33
0.92388
  0
3DFACE
  5
19
  8
MYLAYER1
 10
0.408248
 20
0.408248
 30
0.816497
 11
0.208847
 21
0.404615
 31
0.89032
 12
0.404615
 22
0.208847
 32
0.89032
 13
0.404615
 23
0.208847
 33
0.89032
  0
3DFACE
  5
1a
  8
MYLAYER1
 10
0.208847
 20
0.404615
 30
0.89032
 11
0
 21
0.382683
 31
0.92388
 12
0.198757
 22
0.198757
 32
0.959683
 13
0.198757
 23
0.198757
 33
0.959683
  0
3DFACE
  5
1b
  8
MYLAYER1
 10
0.404615
 20
0.208847
 30
0.89032
 11
0.208847
 21
0.404615
 31
0.89032
 12
0.198757
 22
0.198757
 32
0.959683
 13
0.198757
 23
0.198757
 33
0.959683
  0
3DFACE
  5
1c
  8
MYLAYER1
 10
0.404615
 20
0.208847
 30
0.89032
 11
0.198757
 21
0.198757
 31
0.959683
 12
0.382683
 22
0
 32
0.92388
 13
0.382683
 23
0
 33
0.92388
  0
3DFACE
  5
1d
  8
MYLAYER1
 10
0.408248
 20
0.408248
 30
0.816497
 11
0.404615
 21
0.208847
 31
0.89032
 12
0.57735
 22
0.211325
 32
0.788675
 13
0.57735
 23
0.211325
 33
0.788675
  0
3DFACE
  5
1e
  8
MYLAYER1
 10
0.404615
 20
0.208847
 30
0.89032
 11
0.382683
 21
0
 31
0.92388
 12
0.55557
 22
0
 32
0.83147
 13
0.55557
 23
0
 33
0.83147
  0
3DFACE
  5
1f
  8
MYLAYER1
 10
0.57735
 20
0.211325
 30
0.788675
 11
0.404615
 21
0.208847
 31
0.89032
 12
0.55557
 22
0
 32
0.83147
 13
0.55557
 23
0
 33
0.83147
  0
3DFACE
  5
20
  8
MYLAYER1
 10
0.57735
 20
0.211325
 30
0.788675
 11
0.55557
 21
0
 31
0.83147
 12
0.707107
 22
0
 32
0.707107
 13
0.707107
 23
0
 33
0.707107
  0
3DFACE
  5
21
  8
MYLAYER1
 10
0.707107
 20
0.707107
 30
0
 11
0.57735
 21
0.788675
 31
0.211325
 12
0.788675
 22
0.57735
 32
0.211325
 13
0.788675
 23
0.57735
 33
0.211325
  0
3DFACE
  5
22
  8
MYLAYER1
 10
0.57735
 20
0.788675
 30
0.211325
 11
0.408248
 21
0.816497
 31
0.408248
 12
0.639602
 22
0.639602
 32
0.426401
 13
0.639602
 23
0.639602
 33
0.426401
  0
3DFACE
  5
23
  8
MYLAYER1
 10
0.788675
 20
0.57735
 30
0.211325
 11
0.57735
 21
0.788675
 31
0.211325
 12
0.639602
 22
0.639602
 32
0.426401
 13
0.639602
 23
0.639602
 33
0.426401
  0
3DFACE
  5
24
  8
MYLAYER1
 10
0.788675
 20
0.57735
 30
0.211325
 11
0.639602
 21
0.639602
 31
0.426401
 12
0.816497
 22
0.408248
 32
0.408248
 13
0.816497
 23
0.408248
 33
0.408248
  0
3DFACE
  5
25
  8
MYLAYER1
 10
0.408248
 20
0.816497
 30
0.408248
 11
0.211325
 21
0.788675
 31
0.57735
 12
0.426401
 22
0.639602
 32
0.639602
 13
0.426401
 23
0.639602
 33
0.639602
  0
3DFACE
  5
26
  8
MYLAYER1
 10
0.211325
 20
0.788675
 30
0.57735
 11
0
 21
0.707107
 31
0.707107
 12
0.211325
 22
0.57735
 32
0.788675
 13
0.211325
 23
0.57735
 33
0.788675
  0
3DFACE
  5
27
  8
MYLAYER1
 10
0.426401
 20
0.639602
 30
0.639602
 11
0.211325
 21
0.788675
 31
0.57735
 12
0.211325
 22
0.57735
 32
0.788675
 13
0.211325
 23
0.57735
 33
0.788675
  0
3DFACE
  5
28
  8
MYLAYER1
 10
0.426401
 20
0.639602
 30
0.639602
 11
0.211325
 21
0.57735
 31
0.788675
 12
0.408248
 22
0.408248
 32
0.816497
 13
0.408248
 23
0.408248
 33
0.816497
  0
3DFACE
  5
29
  8
MYLAYER1
 10
0.816497
 20
0.408248
 30
0.408248
 11
0.639602
 21
0.639602
 31
0.426401
 12
0.639602
 22
0.426401
 32
0.639602
 13
0.639602
 23
0.426401
 33
0.639602
  0
3DFACE
  5
2a
  8
MYLAYER1
 10
0.639602
 20
0.639602
 30
0.426401
 11
0.408248
 21
0.816497
 31
0.408248
 12
0.426401
 22
0.639602
 32
0.639602
 13
0.426401
 23
0.639602
 33
0.639602
  0
3DFACE
  5
2b
  8
MYLAYER1
 10
0.639602
 20
0.426401
 30
0.639602
 11
0.639602
 21
0.639602
 31
0.426401
 12
0.426401
 22
0.639602
 32
0.639602
 13
0.426401
 23
0.639602
 33
0.639602
  0
3DFACE
  5
2c
  8
MYLAYER1
 10
0.639602
 20
0.426401
 30
0.639602
 11
0.426401
 21
0.639602
 31
0.639602
 12
0.408248
 22
0.408248
 32
0.816497
 13
0.408248
 23
0.408248
 33
0.816497
  0
3DFACE
  5
2d
  8
MYLAYER1
 10
0.816497
 20
0.408248
 30
0.408248
 11
0.639602
 21
0.426401
 31
0.639602
 12
0.788675
 22
0.211325
 32
0.57735
 13
0.788675
 23
0.211325
 33
0.57735
  0
3DFACE
  5
2e
  8
MYLAYER1
 10
0.639602
 20
0.426401
 30
0.639602
 11
0.408248
 21
0.408248
 31
0.816497
 12
0.57735
 22
0.211325
 32
0.788675
 13
0.57735
 23
0.211325
 33
0.788675
  0
3DFACE
  5
2f
  8
MYLAYER1
 10
0.788675
 20
0.211325
 30
0.57735
 11
0.639602
 21
0.426401
 31
0.639602
 12
0.57735
 22
0.211325
 32
0.788675
 13
0.57735
 23
0.211325
 33
0.788675
  0
3DFACE
  5
30
  8
MYLAYER1
 10
0.788675
 20
0.211325
 30
0.57735
 11
0.57735
 21
0.211325
 31
0.788675
 12
0.707107
 22
0
 32
0.707107
 13
0.707107
 23
0
 33
0.707107
  0
3DFACE
  5
31
  8
MYLAYER1
 10
0.707107
 20
0.707107
 30
0
 11
0.788675
 21
0.57735
 31
0.211325
 12
0.83147
 22
0.55557
 32
0
 13
0.83147
 23
0.55557
 33
0
  0
3DFACE
  5
32
  8
MYLAYER1
 10
0.788675
 20
0.57735
 30
0.211325
 11
0.816497
 21
0.408248
 31
0.408248
 12
0.89032
 22
0.404615
 32
0.208847
 13
0.89032
 23
0.404615
 33
0.208847
  0
3DFACE
  5
33
  8
MYLAYER1
 10
0.83147
 20
0.55557
 30
0
 11
0.788675
 21
0.57735
 31
0.211325
 12
0.89032
 22
0.404615
 32
0.208847
 13
0.89032
 23
0.404615
 33
0.208847
  0
3DFACE
  5
34
  8
MYLAYER1
 10
0.83147
 20
0.55557
 30
0
 11
0.89032
 21
0.404615
 31
0.208847
 12
0.92388
 22
0.382683
 32
0
 13
0.92388
 23
0.382683
 33
0
  0
3DFACE
  5
35
  8
MYLAYER1
 10
0.816497
 20
0.408248
 30
0.408248
 11
0.788675
 21
0.211325
 31
0.57735
 12
0.89032
 22
0.208847
 32
0.404615
 13
0.89032
 23
0.208847
 33
0.404615
  0
3DFACE
  5
36
  8
MYLAYER1
 10
0.788675
 20
0.211325
 30
0.57735
 11
0.707107
 21
0
 31
0.707107
 12
0.83147
 22
0
 32
0.55557
 13
0.83147
 23
0
 33
0.55557
  0
3DFACE
  5
37
  8
MYLAYER1
 10
0.89032
 20
0.208847
 30
0.404615
 11
0.788675
 21
0.211325
 31
0.57735
 12
0.83147
 22
0
 32
0.55557
 13
0.83147
 23
0
 33
0.55557
  0
3DFACE
  5
38
  8
MYLAYER1
 10
0.89032
 20
0.208847
 30
0.404615
 11
0.83147
 21
0
 31
0.55557
 12
0.92388
 22
0
 32
0.382683
 13
0.92388
 23
0
 33
0.382683
  0
3DFACE
  5
39
  8
MYLAYER1
 10
0.92388
 20
0.382683
 30
0
 11
0.89032
 21
0.404615
 31
0.208847
 12
0.959683
 22
0.198757
 32
0.198757
 13
0.959683
 23
0.198757
 33
0.198757
  0
3DFACE
  5
3a
  8
MYLAYER1
 10
0.89032
 20
0.404615
 30
0.208847
 11
0.816497
 21
0.408248
 31
0.408248
 12
0.89032
 22
0.208847
 32
0.404615
 13
0.89032
 23
0.208847
 33
0.404615
  0
3DFACE
  5
3b
  8
MYLAYER1
 10
0.959683
 20
0.198757
 30
0.198757
 11
0.89032
 21
0.404615
 31
0.208847
 12
0.89032
 22
0.208847
 32
0.404615
 13
0.89032
 23
0.208847
 33
0.404615
  0
3DFACE
  5
3c
  8
MYLAYER1
 10
0.959683
 20
0.198757
 30
0.198757
 11
0.89032
 21
0.208847
 31
0.404615
 12
0.92388
 22
0
 32
0.382683
 13
0.92388
 23
0
 33
0.382683
  0
3DFACE
  5
3d
  8
MYLAYER1
 10
0.92388
 20
0.382683
 30
0
 11
0.959683
 21
0.198757
 31
0.198757
 12
0.980785
 22
0.19509
 32
0
 13
0.980785
 23
0.19509
 33
0
  0
3DFACE
  5
3e
  8
MYLAYER1
 10
0.959683
 20
0.198757
 30
0.198757
 11
0.92388
 21
0
 31
0.382683
 12
0.980785
 22
0
 32
0.19509
 13
0.980785
 23
0
 33
0.19509
  0
3DFACE
  5
3f
  8
MYLAYER1
 10
0.980785
 20
0.19509
 30
0
 11
0.959683
 21
0.198757
 31
0.198757
 12
0.980785
 22
0
 32
0.19509
 13
0.980785
 23
0
 33
0.19509
  0
3DFACE
  5
40
  8
MYLAYER1
 10
0.980785
 20
0.19509
 30
0
 11
0.980785
 21
0
 31
0.19509
 12
1
 22
0
 32
0
 13
1
 23
0
 33
0
  0
3DFACE
  5
41
  8
MYLAYER1
 10
-1
 20
0
 30
0
 11
-0.980785
 21
0
 31
0.19509
 12
-0.980785
 22
0.19509
 32
0
 13
-0.980785
 23
0.19509
 33
0
  0
3DFACE
  5
42
  8
MYLAYER1
 10
-0.980785
 20
0
 30
0.19509
 11
-0.92388
 21
0
 31
0.382683
 12
-0.959683
 22
0.198757
 32
0.198757
 13
-0.959683
 23
0.198757
 33
0.198757
  0
3DFACE
  5
43
  8
MYLAYER1
 10
-0.980785
 20
0.19509
 30
0
 11
-0.980785
 21
0
 31
0.19509
 12
-0.959683
 22
0.198757
 32
0.198757
 13
-0.959683
 23
0.198757
 33
0.198757
  0
3DFACE
  5
44
  8
MYLAYER1
 10
-0.980785
 20
0.19509
 30
0
 11
-0.959683
 21
0.198757
 31
0.198757
 12
-0.92388
 22
0.382683
 32
0
 13
-0.92388
 23
0.382683
 33
0
  0
3DFACE
  5
45
  8
MYLAYER1
 10
-0.92388
 20
0
 30
0.382683
 11
-0.83147
 21
0
 31
0.55557
 12
-0.89032
 22
0.208847
 32
0.404615
 13
-0.89032
 23
0.208847
 33
0.404615
  0
3DFACE
  5
46
  8
MYLAYER1
 10
-0.83147
 20
0
 30
0.55557
 11
-0.707107
 21
0
 31
0.707107
 12
-0.788675
 22
0.211325
 32
0.57735
 13
-0.788675
 23
0.211325
 33
0.57735
  0
3DFACE
  5
47
  8
MYLAYER1
 10
-0.89032
 20
0.208847
 30
0.404615
 11
-0.83147
 21
0
 31
0.55557
 12
-0.788675
 22
0.211325
 32
0.57735
 13
-0.788675
 23
0.211325
 33
0.57735
  0
3DFACE
  5
48
  8
MYLAYER1
 10
-0.89032
 20
0.208847
 30
0.404615
 11
-0.788675
 21
0.211325
 31
0.57735
 12
-0.816497
 22
0.408248
 32
0.408248
 13
-0.816497
 23
0.408248
 33
0.408248
  0
3DFACE
  5
49
  8
MYLAYER1
 10
-0.92388
 20
0.382683
 30
0
 11
-0.959683
 21
0.198757
 31
0.198757
 12
-0.89032
 22
0.404615
 32
0.208847
 13
-0.89032
 23
0.404615
 33
0.208847
  0
3DFACE
  5
4a
  8
MYLAYER1
 10
-0.959683
 20
0.198757
 30
0.198757
 11
-0.92388
 21
0
 31
0.382683
 12
-0.89032
 22
0.208847
 32
0.404615
 13
-0.89032
 23
0.208847
 33
0.404615
  0
3DFACE
  5
4b
  8
MYLAYER1
 10
-0.89032
 20
0.404615
 30
0.208847
 11
-0.959683
 21
0.198757
 31
0.198757
 12
-0.89032
 22
0.208847
 32
0.404615
 13
-0.89032
 23
0.208847
 33
0.404615
  0
3DFACE
  5
4c
  8
MYLAYER1
 10
-0.89032
 20
0.404615
 30
0.208847
 11
-0.89032
 21
0.208847
 31
0.404615
 12
-0.816497
 22
0.408248
 32
0.408248
 13
-0.816497
 23
0.408248
 33
0.408248
  0
3DFACE
  5
4d
  8
MYLAYER1
 10
-0.92388
 20
0.382683
 30
0
 11
-0.89032
 21
0.404615
 31
0.208847
 12
-0.83147
 22
0.55557
 32
0
 13
-0.83147
 23
0.55557
 33
0
  0
3DFACE
  5
4e
  8
MYLAYER1
 10
-0.89032
 20
0.404615
 30
0.208847
 11
-0.816497
 21
0.408248
 31
0.408248
 12
-0.788675
 22
0.57735
 32
0.211325
 13
-0.788675
 23
0.57735
 33
0.211325
  0
3DFACE
  5
4f
  8
MYLAYER1
 10
-0.83147
 20
0.55557
 30
0
 11
-0.89032
 21
0.404615
 31
0.208847
 12
-0.788675
 22
0.57735
 32
0.211325
 13
-0.788675
 23
0.57735
 33
0.211325
  0
3DFACE
  5
50
  8
MYLAYER1
 10
-0.83147
 20
0.55557
 30
0
 11
-0.788675
 21
0.57735
 31
0.211325
 12
-0.707107
 22
0.707107
 32
0
 13
-0.707107
 23
0.707107
 33
0
  0
3DFACE
  5
51
  8
MYLAYER1
 10
-0.707107
 20
0
 30
0.707107
 11
-0.55557
 21
0
 31
0.83147
 12
-0.57735
 22
0.211325
 32
0.788675
 13
-0.57735
 23
0.211325
 33
0.788675
  0
3DFACE
  5
52
  8
MYLAYER1
 10
-0.55557
 20
0
 30
0.83147
 11
-0.382683
 21
0
 31
0.92388
 12
-0.404615
 22
0.208847
 32
0.89032
 13
-0.404615
 23
0.208847
 33
0.89032
  0
3DFACE
  5
53
  8
MYLAYER1
 10
-0.57735
 20
0.211325
 30
0.788675
 11
-0.55557
 21
0
 31
0.83147
 12
-0.404615
 22
0.208847
 32
0.89032
 13
-0.404615
 23
0.208847
 33
0.89032
  0
3DFACE
  5
54
  8
MYLAYER1
 10
-0.57735
 20
0.211325
 30
0.788675
 11
-0.404615
 21
0.208847
 31
0.89032
 12
-0.408248
 22
0.408248
 32
0.816497
 13
-0.408248
 23
0.408248
 33
0.816497
  0
3DFACE
  5
55
  8
MYLAYER1
 10
-0.382683
 20
0
 30
0.92388
 11
-0.19509
 21
0
 31
0.980785
 12
-0.198757
 22
0.198757
 32
0.959683
 13
-0.198757
 23
0.198757
 33
0.959683
  0
3DFACE
  5
56
  8
MYLAYER1
 10
-0.19509
 20
0
 30
0.980785
 11
0
 21
0
 31
1
 12
0
 22
0.19509
 32
0.980785
 13
0
 23
0.19509
 33
0.980785
  0
3DFACE
  5
57
  8
MYLAYER1
 10
-0.198757
 20
0.198757
 30
0.959683
 11
-0.19509
 21
0
 31
0.980785
 12
0
 22
0.19509
 32
0.980785
 13
0
 23
0.19509
 33
0.980785
  0
3DFACE
  5
58
  8
MYLAYER1
 10
-0.198757
 20
0.198757
 30
0.959683
 11
0
 21
0.19509
 31
0.980785
 12
0
 22
0.382683
 32
0.92388
 13
0
 23
0.382683
 33
0.92388
  0
3DFACE
  5
59
  8
MYLAYER1
 10
-0.408248
 20
0.408248
 30
0.816497
 11
-0.404615
 21
0.208847
 31
0.89032
 12
-0.208847
 22
0.404615
 32
0.89032
 13
-0.208847
 23
0.404615
 33
0.89032
  0
3DFACE
  5
5a
  8
MYLAYER1
 10
-0.404615
 20
0.208847
 30
0.89032
 11
-0.382683
 21
0
 31
0.92388
 12
-0.198757
 22
0.198757
 32
0.959683
 13
-0.198757
 23
0.198757
 33
0.959683
  0
3DFACE
  5
5b
  8
MYLAYER1
 10
-0.208847
 20
0.404615
 30
0.89032
 11
-0.404615
 21
0.208847
 31
0.89032
 12
-0.198757
 22
0.198757
 32
0.959683
 13
-0.198757
 23
0.198757
 33
0.959683
  0
3DFACE
  5
5c
  8
MYLAYER1
 10
-0.208847
 20
0.404615
 30
0.89032
 11
-0.198757
 21
0.198757
 31
0.959683
 12
0
 22
0.382683
 32
0.92388
 13
0
 23
0.382683
 33
0.92388
  0
3DFACE
  5
5d
  8
MYLAYER1
 10
-0.408248
 20
0.408248
 30
0.816497
 11
-0.208847
 21
0.404615
 31
0.89032
 12
-0.211325
 22
0.57735
 32
0.788675
 13
-0.211325
 23
0.57735
 33
0.788675
  0
3DFACE
  5
5e
  8
MYLAYER1
 10
-0.208847
 20
0.404615
 30
0.89032
 11
0
 21
0.382683
 31
0.92388
 12
0
 22
0.55557
 32
0.83147
 13
0
 23
0.55557
 33
0.83147
  0
3DFACE
  5
5f
  8
MYLAYER1
 10
-0.211325
 20
0.57735
 30
0.788675
 11
-0.208847
 21
0.404615
 31
0.89032
 12
0
 22
0.55557
 32
0.83147
 13
0
 23
0.55557
 33
0.83147
  0
3DFACE
  5
60
  8
MYLAYER1
 10
-0.211325
 20
0.57735
 30
0.788675
 11
0
 21
0.55557
 31
0.83147
 12
0
 22
0.707107
 32
0.707107
 13
0
 23
0.707107
 33
0.707107
  0
3DFACE
  5
61
  8
MYLAYER1
 10
-0.707107
 20
0.707107
 30
0
 11
-0.788675
 21
0.57735
 31
0.211325
 12
-0.57735
 22
0.788675
 32
0.211325
 13
-0.57735
 23
0.788675
 33
0.211325
  0
3DFACE
  5
62
  8
MYLAYER1
 10
-0.788675
 20
0.57735
 30
0.211325
 11
-0.816497
 21
0.408248
 31
0.408248
 12
-0.639602
 22
0.639602
 32
0.426401
 13
-0.639602
 23
0.639602
 33
0.426401
  0
3DFACE
  5
63
  8
MYLAYER1
 10
-0.57735
 20
0.788675
 30
0.211325
 11
-0.788675
 21
0.57735
 31
0.211325
 12
-0.639602
 22
0.639602
 32
0.426401
 13
-0.639602
 23
0.639602
 33
0.426401
  0
3DFACE
  5
64
  8
MYLAYER1
 10
-0.57735
 20
0.788675
 30
0.211325
 11
-0.639602
 21
0.639602
 31
0.426401
 12
-0.408248
 22
0.816497
 32
0.408248
 13
-0.408248
 23
0.816497
 33
0.408248
  0
3DFACE
  5
65
  8
MYLAYER1
 10
-0.816497
 20
0.408248
 30
0.408248
 11
-0.788675
 21
0.211325
 31
0.57735
 12
-0.639602
 22
0.426401
 32
0.639602
 13
-0.639602
 23
0.426401
 33
0.639602
  0
3DFACE
  5
66
  8
MYLAYER1
 10
-0.788675
 20
0.211325
 30
0.57735
 11
-0.707107
 21
0
 31
0.707107
 12
-0.57735
 22
0.211325
 32
0.788675
 13
-0.57735
 23
0.211325
 33
0.788675
  0
3DFACE
  5
67
  8
MYLAYER1
 10
-0.639602
 20
0.426401
 30
0.639602
 11
-0.788675
 21
0.211325
 31
0.57735
 12
-0.57735
 22
0.211325
 32
0.788675
 13
-0.57735
 23
0.211325
 33
0.788675
  0
3DFACE
  5
68
  8
MYLAYER1
 10
-0.639602
 20
0.426401
 30
0.639602
 11
-0.57735
 21
0.211325
 31
0.788675
 12
-0.408248
 22
0.408248
 32
0.816497
 13
-0.408248
 23
0.408248
 33
0.816497
  0
3DFACE
  5
69
  8
MYLAYER1
 10
-0.408248
 20
0.816497
 30
0.408248
 11
-0.639602
 21
0.639602
 31
0.426401
 12
-0.426401
 22
0.639602
 32
0.639602
 13
-0.426401
 23
0.639602
 33
0.639602
  0
3DFACE
  5
6a
  8
MYLAYER1
 10
-0.639602
 20
0.639602
 30
0.426401
 11
-0.816497
 21
0.408248
 31
0.408248
 12
-0.639602
 22
0.426401
 32
0.639602
 13
-0.639602
 23
0.426401
 33
0.639602
  0
3DFACE
  5
6b
  8
MYLAYER1
 10
-0.426401
 20
0.639602
 30
0.639602
 11
-0.639602
 21
0.639602
 31
0.426401
 12
-0.639602
 22
0.426401
 32
0.639602
 13
-0.639602
 23
0.426401
 33
0.639602
  0
3DFACE
  5
6c
  8
MYLAYER1
 10
-0.426401
 20
0.639602
 30
0.639602
 11
-0.639602
 21
0.426401
 31
0.639602
 12
-0.408248
 22
0.408248
 32
0.816497
 13
-0.408248
 23
0.408248
 33
0.816497
  0
3DFACE
  5
6d
  8
MYLAYER1
 10
-0.408248
 20
0.816497
 30
0.408248
 11
-0.426401
 21
0.639602
 31
0.639602
 12
-0.211325
 22
0.788675
 32
0.57735
 13
-0.211325
 23
0.788675
 33
0.57735
  0
3DFACE
  5
6e
  8
MYLAYER1
 10
-0.426401
 20
0.639602
 30
0.639602
 11
-0.408248
 21
0.408248
 31
0.816497
 12
-0.211325
 22
0.57735
 32
0.788675
 13
-0.211325
 23
0.57735
 33
0.788675
  0
3DFACE
  5
6f
  8
MYLAYER1
 10
-0.211325
 20
0.788675
 30
0.57735
 11
-0.426401
 21
0.639602
 31
0.639602
 12
-0.211325
 22
0.57735
 32
0.788675
 13
-0.211325
 23
0.57735
 33
0.788675
  0
3DFACE
  5
70
  8
MYLAYER1
 10
-0.211325
 20
0.788675
 30
0.57735
 11
-0.211325
 21
0.57735
 31
0.788675
 12
0
 22
0.707107
 32
0.707107
 13
0
 23
0.707107
 33
0.707107
  0
3DFACE
  5
71
  8
MYLAYER1
 10
-0.707107
 20
0.707107
 30
0
 11
-0.57735
 21
0.788675
 31
0.211325
 12
-0.55557
 22
0.83147
 32
0
 13
-0.55557
 23
0.83147
 33
0
  0
3DFACE
  5
72
  8
MYLAYER1
 10
-0.57735
 20
0.788675
 30
0.211325
 11
-0.408248
 21
0.816497
 31
0.408248
 12
-0.404615
 22
0.89032
 32
0.208847
 13
-0.404615
 23
0.89032
 33
0.208847
  0
3DFACE
  5
73
  8
MYLAYER1
 10
-0.55557
 20
0.83147
 30
0
 11
-0.57735
 21
0.788675
 31
0.211325
 12
-0.404615
 22
0.89032
 32
0.208847
 13
-0.404615
 23
0.89032
 33
0.208847
  0
3DFACE
  5
74
  8
MYLAYER1
 10
-0.55557
 20
0.83147
 30
0
 11
-0.404615
 21
0.89032
 31
0.208847
 12
-0.382683
 22
0.92388
 32
0
 13
-0.382683
 23
0.92388
 33
0
  0
3DFACE
  5
75
  8
MYLAYER1
 10
-0.408248
 20
0.816497
 30
0.408248
 11
-0.211325
 21
0.788675
 31
0.57735
 12
-0.208847
 22
0.89032
 32
0.404615
 13
-0.208847
 23
0.89032
 33
0.404615
  0
3DFACE
  5
76
  8
MYLAYER1
 10
-0.211325
 20
0.788675
 30
0.57735
 11
0
 21
0.707107
 31
0.707107
 12
0
 22
0.83147
 32
0.55557
 13
0
 23
0.83147
 33
0.55557
  0
3DFACE
  5
77
  8
MYLAYER1
 10
-0.208847
 20
0.89032
 30
0.404615
 11
-0.211325
 21
0.788675
 31
0.57735
 12
0
 22
0.83147
 32
0.55557
 13
0
 23
0.83147
 33
0.55557
  0
3DFACE
  5
78
  8
MYLAYER1
 10
-0.208847
 20
0.89032
 30
0.404615
 11
0
 21
0.83147
 31
0.55557
 12
0
 22
0.92388
 32
0.382683
 13
0
 23
0.92388
 33
0.382683
  0
3DFACE
  5
79
  8
MYLAYER1
 10
-0.382683
 20
0.92388
 30
0
 11
-0.404615
 21
0.89032
 31
0.208847
 12
-0.198757
 22
0.959683
 32
0.198757
 13
-0.198757
 23
0.959683
 33
0.198757
  0
3DFACE
  5
7a
  8
MYLAYER1
 10
-0.404615
 20
0.89032
 30
0.208847
 11
-0.408248
 21
0.816497
 31
0.408248
 12
-0.208847
 22
0.89032
 32
0.404615
 13
-0.208847
 23
0.89032
 33
0.404615
  0
3DFACE
  5
7b
  8
MYLAYER1
 10
-0.198757
 20
0.959683
 30
0.198757
 11
-0.404615
 21
0.89032
 31
0.208847
 12
-0.208847
 22
0.89032
 32
0.404615
 13
-0.208847
 23
0.89032
 33
0.404615
  0
3DFACE
  5
7c
  8
MYLAYER1
 10
-0.198757
 20
0.959683
 30
0.198757
 11
-0.208847
 21
0.89032
 31
0.404615
 12
0
 22
0.92388
 32
0.382683
 13
0
 23
0.92388
 33
0.382683
  0
3DFACE
  5
7d
  8
MYLAYER1
 10
-0.382683
 20
0.92388
 30
0
 11
-0.198757
 21
0.959683
 31
0.198757
 12
-0.19509
 22
0.980785
 32
0
 13
-0.19509
 23
0.980785
 33
0
  0
3DFACE
  5
7e
  8
MYLAYER1
 10
-0.198757
 20
0.959683
 30
0.198757
 11
0
 21
0.92388
 31
0.382683
 12
0
 22
0.980785
 32
0.19509
 13
0
 23
0.980785
 33
0.19509
  0
3DFACE
  5
7f
  8
MYLAYER1
 10
-0.19509
 20
0.980785
 30
0
 11
-0.198757
 21
0.959683
 31
0.198757
 12
0
 22
0.980785
 32
0.19509
 13
0
 23
0.980785
 33
0.19509
  0
3DFACE
  5
80
  8
MYLAYER1
 10
-0.19509
 20
0.980785
 30
0
 11
0
 21
0.980785
 31
0.19509
 12
0
 22
1
 32
0
 13
0
 23
1
 33
0
  0
3DFACE
  5
81
  8
MYLAYER1
 10
0
 20
-1
 30
0
 11
0
 21
-0.980785
 31
0.19509
 12
-0.19509
 22
-0.980785
 32
0
 13
-0.19509
 23
-0.980785
 33
0
  0
3DFACE
  5
82
  8
MYLAYER1
 10
0
 20
-0.980785
 30
0.19509
 11
0
 21
-0.92388
 31
0.382683
 12
-0.198757
 22
-0.959683
 32
0.198757
 13
-0.198757
 23
-0.959683
 33
0.198757
  0
3DFACE
  5
83
  8
MYLAYER1
 10
-0.19509
 20
-0.980785
 30
0
 11
0
 21
-0.980785
 31
0.19509
 12
-0.198757
 22
-0.959683
 32
0.198757
 13
-0.198757
 23
-0.959683
 33
0.198757
  0
3DFACE
  5
84
  8
MYLAYER1
 10
-0.19509
 20
-0.980785
 30
0
 11
-0.198757
 21
-0.959683
 31
0.198757
 12
-0.382683
 22
-0.92388
 32
0
 13
-0.382683
 23
-0.92388
 33
0
  0
3DFACE
  5
85
  8
MYLAYER1
 10
0
 20
-0.92388
 30
0.382683
 11
0
 21
-0.83147
 31
0.55557
 12
-0.208847
 22
-0.89032
 32
0.404615
 13
-0.208847
 23
-0.89032
 33
0.404615
  0
3DFACE
  5
86
  8
MYLAYER1
 10
0
 20
-0.83147
 30
0.55557
 11
0
 21
-0.707107
 31
0.707107
 12
-0.211325
 22
-0.788675
 32
0.57735
 13
-0.211325
 23
-0.788675
 33
0.57735
  0
3DFACE
  5
87
  8
MYLAYER1
 10
-0.208847
 20
-0.89032
 30
0.404615
 11
0
 21
-0.83147
 31
0.55557
 12
-0.211325
 22
-0.788675
 32
0.57735
 13
-0.211325
 23
-0.788675
 33
0.57735
  0
3DFACE
  5
88
  8
MYLAYER1
 10
-0.208847
 20
-0.89032
 30
0.404615
 11
-0.211325
 21
-0.788675
 31
0.57735
 12
-0.408248
 22
-0.816497
 32
0.408248
 13
-0.408248
 23
-0.816497
 33
0.408248
  0
3DFACE
  5
89
  8
MYLAYER1
 10
-0.382683
 20
-0.92388
 30
0
 11
-0.198757
 21
-0.959683
 31
0.198757
 12
-0.404615
 22
-0.89032
 32
0.208847
 13
-0.404615
 23
-0.89032
 33
0.208847
  0
3DFACE
  5
8a
  8
MYLAYER1
 10
-0.198757
 20
-0.959683
 30
0.198757
 11
0
 21
-0.92388
 31
0.382683
 12
-0.208847
 22
-0.89032
 32
0.404615
 13
-0.208847
 23
-0.89032
 33
0.404615
  0
3DFACE
  5
8b
  8
MYLAYER1
 10
-0.404615
 20
-0.89032
 30
0.208847
 11
-0.198757
 21
-0.959683
 31
0.198757
 12
-0.208847
 22
-0.89032
 32
0.404615
 13
-0.208847
 23
-0.89032
 33
0.404615
  0
3DFACE
  5
8c
  8
MYLAYER1
 10
-0.404615
 20
-0.89032
 30
0.208847
 11
-0.208847
 21
-0.89032
 31
0.404615
 12
-0.408248
 22
-0.816497
 32
0.408248
 13
-0.408248
 23
-0.816497
 33
0.408248
  0
3DFACE
  5
8d
  8
MYLAYER1
 10
-0.382683
 20
-0.92388
 30
0
 11
-0.404615
 21
-0.89032
 31
0.208847
 12
-0.55557
 22
-0.83147
 32
0
 13
-0.55557
 23
-0.83147
 33
0
  0
3DFACE
  5
8e
  8
MYLAYER1
 10
-0.404615
 20
-0.89032
 30
0.208847
 11
-0.408248
 21
-0.816497
 31
0.408248
 12
-0.57735
 22
-0.788675
 32
0.211325
 13
-0.57735
 23
-0.788675
 33
0.211325
  0
3DFACE
  5
8f
  8
MYLAYER1
 10
-0.55557
 20
-0.83147
 30
0
 11
-0.404615
 21
-0.89032
 31
0.208847
 12
-0.57735
 22
-0.788675
 32
0.211325
 13
-0.57735
 23
-0.788675
 33
0.211325
  0
3DFACE
  5
90
  8
MYLAYER1
 10
-0.55557
 20
-0.83147
 30
0
 11
-0.57735
 21
-0.788675
 31
0.211325
 12
-0.707107
 22
-0.707107
 32
0
 13
-0.707107
 23
-0.707107
 33
0
  0
3DFACE
  5
91
  8
MYLAYER1
 10
0
 20
-0.707107
 30
0.707107
 11
0
 21
-0.55557
 31
0.83147
 12
-0.211325
 22
-0.57735
 32
0.788675
 13
-0.211325
 23
-0.57735
 33
0.788675
  0
3DFACE
  5
92
  8
MYLAYER1
 10
0
 20
-0.55557
 30
0.83147
 11
0
 21
-0.382683
 31
0.92388
 12
-0.208847
 22
-0.404615
 32
0.89032
 13
-0.208847
 23
-0.404615
 33
0.89032
  0
3DFACE
  5
93
  8
MYLAYER1
 10
-0.211325
 20
-0.57735
 30
0.788675
 11
0
 21
-0.55557
 31
0.83147
 12
-0.208847
 22
-0.404615
 32
0.89032
 13
-0.208847
 23
-0.404615
 33
0.89032
  0
3DFACE
  5
94
  8
MYLAYER1
 10
-0.211325
 20
-0.57735
 30
0.788675
 11
-0.208847
 21
-0.404615
 31
0.89032
 12
-0.408248
 22
-0.408248
 32
0.816497
 13
-0.408248
 23
-0.408248
 33
0.816497
  0
3DFACE
  5
95
  8
MYLAYER1
 10
0
 20
-0.382683
 30
0.92388
 11
0
 21
-0.19509
 31
0.980785
 12
-0.198757
 22
-0.198757
 32
0.959683
 13
-0.198757
 23
-0.198757
 33
0.959683
  0
3DFACE
  5
96
  8
MYLAYER1
 10
0
 20
-0.19509
 30
0.980785
 11
0
 21
0
 31
1
 12
-0.19509
 22
0
 32
0.980785
 13
-0.19509
 23
0
 33
0.980785
  0
3DFACE
  5
97
  8
MYLAYER1
 10
-0.198757
 20
-0.198757
 30
0.959683
 11
0
 21
-0.19509
 31
0.980785
 12
-0.19509
 22
0
 32
0.980785
 13
-0.19509
 23
0
 33
0.980785
  0
3DFACE
  5
98
  8
MYLAYER1
 10
-0.198757
 20
-0.198757
 30
0.959683
 11
-0.19509
 21
0
 31
0.980785
 12
-0.382683
 22
0
 32
0.92388
 13
-0.382683
 23
0
 33
0.92388
  0
3DFACE
  5
99
  8
MYLAYER1
 10
-0.408248
 20
-0.408248
 30
0.816497
 11
-0.208847
 21
-0.404615
 31
0.89032
 12
-0.404615
 22
-0.208847
 32
0.89032
 13
-0.404615
 23
-0.208847
 33
0.89032
  0
3DFACE
  5
9a
  8
MYLAYER1
 10
-0.208847
 20
-0.404615
 30
0.89032
 11
0
 21
-0.382683
 31
0.92388
 12
-0.198757
 22
-0.198757
 32
0.959683
 13
-0.198757
 23
-0.198757
 33
0.959683
  0
3DFACE
  5
9b
  8
MYLAYER1
 10
-0.404615
 20
-0.208847
 30
0.89032
 11
-0.208847
 21
-0.404615
 31
0.89032
 12
-0.198757
 22
-0.198757
 32
0.959683
 13
-0.198757
 23
-0.198757
 33
0.959683
  0
3DFACE
  5
9c
  8
MYLAYER1
 10
-0.404615
 20
-0.208847
 30
0.89032
 11
-0.198757
 21
-0.198757
 31
0.959683
 12
-0.382683
 22
0
 32
0.92388
 13
-0.382683
 23
0
 33
0.92388
  0
3DFACE
  5
9d
  8
MYLAYER1
 10
-0.408248
 20
-0.408248
 30
0.816497
 11
-0.404615
 21
-0.208847
 31
0.89032
 12
-0.57735
 22
-0.211325
 32
0.788675
 13
-0.57735
 23
-0.211325
 33
0.788675
  0
3DFACE
  5
9e
  8
MYLAYER1
 10
-0.404615
 20
-0.208847
 30
0.89032
 11
-0.382683
 21
0
 31
0.92388
 12
-0.55557
 22
0
 32
0.83147
 13
-0.55557
 23
0
 33
0.83147
  0
3DFACE
  5
9f
  8
MYLAYER1
 10
-0.57735
 20
-0.211325
 30
0.788675
 11
-0.404615
 21
-0.208847
 31
0.89032
 12
-0.55557
 22
0
 32
0.83147
 13
-0.55557
 23
0
 33
0.83147
  0
3DFACE
  5
a0
  8
MYLAYER1
 10
-0.57735
 20
-0.211325
 30
0.788675
 11
-0.55557
 21
0
 31
0.83147
 12
-0.707107
 22
0
 32
0.707107
 13
-0.707107
 23
0
 33
0.707107
  0
3DFACE
  5
a1
  8
MYLAYER1
 10
-0.707107
 20
-0.707107
 30
0
 11
-0.57735
 21
-0.788675
 31
0.211325
 12
-0.788675
 22
-0.57735
 32
0.211325
 13
-0.788675
 23
-0.57735
 33
0.211325
  0
3DFACE
  5
a2
  8
MYLAYER1
 10
-0.57735
 20
-0.788675
 30
0.211325
 11
-0.408248
 21
-0.816497
 31
0.408248
 12
-0.639602
 22
-0.639602
 32
0.426401
 13
-0.639602
 23
-0.639602
 33
0.426401
  0
3DFACE
  5
a3
  8
MYLAYER1
 10
-0.788675
 20
-0.57735
 30
0.211325
 11
-0.57735
 21
-0.788675
 31
0.211325
 12
-0.639602
 22
-0.639602
 32
0.426401
 13
-0.639602
 23
-0.639602
 33
0.426401
  0
3DFACE
  5
a4
  8
MYLAYER1
 10
-0.788675
 20
-0.57735
 30
0.211325
 11
-0.639602
 21
-0.639602
 31
0.426401
 12
-0.816497
 22
-0.408248
 32
0.408248
 13
-0.816497
 23
-0.408248
 33
0.408248
  0
3DFACE
  5
a5
  8
MYLAYER1
 10
-0.408248
 20
-0.816497
 30
0.408248
 11
-0.211325
 21
-0.788675
 31
0.57735
 12
-0.426401
 22
-0.639602
 32
0.639602
 13
-0.426401
 23
-0.639602
 33
0.639602
  0
3DFACE
  5
a6
  8
MYLAYER1
 10
-0.211325
 20
-0.788675
 30
0.57735
 11
0
 21
-0.707107
 31
0.707107
 12
-0.211325
 22
-0.57735
 32
0.788675
 13
-0.211325
 23
-0.57735
 33
0.788675
  0
3DFACE
  5
a7
  8
MYLAYER1
 10
-0.426401
 20
-0.639602
 30
0.639602
 11
-0.211325
 21
-0.788675
 31
0.57735
 12
-0.211325
 22
-0.57735
 32
0.788675
 13
-0.211325
 23
-0.57735
 33
0.788675
  0
3DFACE
  5
a8
  8
MYLAYER1
 10
-0.426401
 20
-0.639602
 30
0.639602
 11
-0.211325
 21
-0.57735
 31
0.788675
 12
-0.408248
 22
-0.408248
 32
0.816497
 13
-0.408248
 23
-0.408248
 33
0.816497
  0
3DFACE
  5
a9
  8
MYLAYER1
 10
-0.816497
 20
-0.408248
 30
0.408248
 11
-0.639602
 21
-0.639602
 31
0.426401
 12
-0.639602
 22
-0.426401
 32
0.639602
 13
-0.639602
 23
-0.426401
 33
0.639602
  0
3DFACE
  5
aa
  8
MYLAYER1
 10
-0.639602
 20
-0.639602
 30
0.426401
 11
-0.408248
 21
-0.816497
 31
0.408248
 12
-0.426401
 22
-0.639602
 32
0.639602
 13
-0.426401
 23
-0.639602
 33
0.639602
  0
3DFACE
  5
ab
  8
MYLAYER1
 10
-0.639602
 20
-0.426401
 30
0.639602
 11
-0.639602
 21
-0.639602
 31
0.426401
 12
-0.426401
 22
-0.639602
 32
0.639602
 13
-0.426401
 23
-0.639602
 33
0.639602
  0
3DFACE
  5
ac
  8
MYLAYER1
 10
-0.639602
 20
-0.426401
 30
0.639602
 11
-0.426401
 21
-0.639602
 31
0.639602
 12
-0.408248
 22
-0.408248
 32
0.816497
 13
-0.408248
 23
-0.408248
 33
0.816497
  0
3DFACE
  5
ad
  8
MYLAYER1
 10
-0.816497
 20
-0.408248
 30
0.408248
 11
-0.639602
 21
-0.426401
 31
0.639602
 12
-0.788675
 22
-0.211325
 32
0.57735
 13
-0.788675
 23
-0.211325
 33
0.57735
  0
3DFACE
  5
ae
  8
MYLAYER1
 10
-0.639602
 20
-0.426401
 30
0.639602
 11
-0.408248
 21
-0.408248
 31
0.816497
 12
-0.57735
 22
-0.211325
 32
0.788675
 13
-0.57735
 23
-0.211325
 33
0.788675
  0
3DFACE
  5
af
  8
MYLAYER1
 10
-0.788675
 20
-0.211325
 30
0.57735
 11
-0.639602
 21
-0.426401
 31
0.639602
 12
-0.57735
 22
-0.211325
 32
0.788675
 13
-0.57735
 23
-0.211325
 33
0.788675
  0
3DFACE
  5
b0
  8
MYLAYER1
 10
-0.788675
 20
-0.211325
 30
0.57735
 11
-0.57735
 21
-0.211325
 31
0.788675
 12
-0.707107
 22
0
 32
0.707107
 13
-0.707107
 23
0
 33
0.707107
  0
3DFACE
  5
b1
  8
MYLAYER1
 10
-0.707107
 20
-0.707107
 30
0
 11
-0.788675
 21
-0.57735
 31
0.211325
 12
-0.83147
 22
-0.55557
 32
0
 13
-0.83147
 23
-0.55557
 33
0
  0
3DFACE
  5
b2
  8
MYLAYER1
 10
-0.788675
 20
-0.57735
 30
0.211325
 11
-0.816497
 21
-0.408248
 31
0.408248
 12
-0.89032
 22
-0.404615
 32
0.208847
 13
-0.89032
 23
-0.404615
 33
0.208847
  0
3DFACE
  5
b3
  8
MYLAYER1
 10
-0.83147
 20
-0.55557
 30
0
 11
-0.788675
 21
-0.57735
 31
0.211325
 12
-0.89032
 22
-0.404615
 32
0.208847
 13
-0.89032
 23
-0.404615
 33
0.208847
  0
3DFACE
  5
b4
  8
MYLAYER1
 10
-0.83147
 20
-0.55557
 30
0
 11
-0.89032
 21
-0.404615
 31
0.208847
 12
-0.92388
 22
-0.382683
 32
0
 13
-0.92388
 23
-0.382683
 33
0
  0
3DFACE
  5
b5
  8
MYLAYER1
 10
-0.816497
 20
-0.408248
 30
0.408248
 11
-0.788675
 21
-0.211325
 31
0.57735
 12
-0.89032
 22
-0.208847
 32
0.404615
 13
-0.89032
 23
-0.208847
 33
0.404615
  0
3DFACE
  5
b6
  8
MYLAYER1
 10
-0.788675
 20
-0.211325
 30
0.57735
 11
-0.707107
 21
0
 31
0.707107
 12
-0.83147
 22
0
 32
0.55557
 13
-0.83147
 23
0
 33
0.55557
  0
3DFACE
  5
b7
  8
MYLAYER1
 10
-0.89032
 20
-0.208847
 30
0.404615
 11
-0.788675
 21
-0.211325
 31
0.57735
 12
-0.83147
 22
0
 32
0.55557
 13
-0.83147
 23
0
 33
0.55557
  0
3DFACE
  5
b8
  8
MYLAYER1
 10
-0.89032
 20
-0.208847
 30
0.404615
 11
-0.83147
 21
0
 31
0.55557
 12
-0.92388
 22
0
 32
0.382683
 13
-0.92388
 23
0
 33
0.382683
  0
3DFACE
  5
b9
  8
MYLAYER1
 10
-0.92388
 20
-0.382683
 30
0
 11
-0.89032
 21
-0.404615
 31
0.208847
 12
-0.959683
 22
-0.198757
 32
0.198757
 13
-0.959683
 23
-0.198757
 33
0.198757
  0
3DFACE
  5
ba
  8
MYLAYER1
 10
-0.89032
 20
-0.404615
 30
0.208847
 11
-0.816497
 21
-0.408248
 31
0.408248
 12
-0.89032
 22
-0.208847
 32
0.404615
 13
-0.89032
 23
-0.208847
 33
0.404615
  0
3DFACE
  5
bb
  8
MYLAYER1
 10
-0.959683
 20
-0.198757
 30
0.198757
 11
-0.89032
 21
-0.404615
 31
0.208847
 12
-0.89032
 22
-0.208847
 32
0.404615
 13
-0.89032
 23
-0.208847
 33
0.404615
  0
3DFACE
  5
bc
  8
MYLAYER1
 10
-0.959683
 20
-0.198757
 30
0.198757
 11
-0.89032
 21
-0.208847
 31
0.404615
 12
-0.92388
 22
0
 32
0.382683
 13
-0.92388
 23
0
 33
0.382683
  0
3DFACE
  5
bd
  8
MYLAYER1
 10
-0.92388
 20
-0.382683
 30
0
 11
-0.959683
 21
-0.198757
 31
0.198757
 12
-0.980785
 22
-0.19509
 32
0
 13
-0.980785
 23
-0.19509
 33
0
  0
3DFACE
  5
be
  8
MYLAYER1
 10
-0.959683
 20
-0.198757
 30
0.198757
 11
-0.92388
 21
0
 31
0.382683
 12
-0.980785
 22
0
 32
0.19509
 13
-0.980785
 23
0
 33
0.19509
  0
3DFACE
  5
bf
  8
MYLAYER1
 10
-0.980785
 20
-0.19509
 30
0
 11
-0.959683
 21
-0.198757
 31
0.198757
 12
-0.980785
 22
0
 32
0.19509
 13
-0.980785
 23
0
 33
0.19509
  0
3DFACE
  5
c0
  8
MYLAYER1
 10
-0.980785
 20
-0.19509
 30
0
 11
-0.980785
 21
0
 31
0.19509
 12
-1
 22
0
 32
0
 13
-1
 23
0
 33
0
  0
3DFACE
  5
c1
  8
MYLAYER1
 10
1
 20
0
 30
0
 11
0.980785
 21
0
 31
0.19509
 12
0.980785
 22
-0.19509
 32
0
 13
0.980785
 23
-0.19509
 33
0
  0
3DFACE
  5
c2
  8
MYLAYER1
 10
0.980785
 20
0
 30
0.19509
 11
0.92388
 21
0
 31
0.382683
 12
0.959683
 22
-0.198757
 32
0.198757
 13
0.959683
 23
-0.198757
 33
0.198757
  0
3DFACE
  5
c3
  8
MYLAYER1
 10
0.980785
 20
-0.19509
 30
0
 11
0.980785
 21
0
 31
0.19509
 12
0.959683
 22
-0.198757
 32
0.198757
 13
0.959683
 23
-0.198757
 33
0.198757
  0
3DFACE
  5
c4
  8
MYLAYER1
 10
0.980785
 20
-0.19509
 30
0
 11
0.959683
 21
-0.198757
 31
0.198757
 12
0.92388
 22
-0.382683
 32
0
 13
0.92388
 23
-0.382683
 33
0
  0
3DFACE
  5
c5
  8
MYLAYER1
 10
0.92388
 20
0
 30
0.382683
 11
0.83147
 21
0
 31
0.55557
 12
0.89032
 22
-0.208847
 32
0.404615
 13
0.89032
 23
-0.208847
 33
0.404615
  0
3DFACE
  5
c6
  8
MYLAYER1
 10
0.83147
 20
0
 30
0.55557
 11
0.707107
 21
0
 31
0.707107
 12
0.788675
 22
-0.211325
 32
0.57735
 13
0.788675
 23
-0.211325
 33
0.57735
  0
3DFACE
  5
c7
  8
MYLAYER1
 10
0.89032
 20
-0.208847
 30
0.404615
 11
0.83147
 21
0
 31
0.55557
 12
0.788675
 22
-0.211325
 32
0.57735
 13
0.788675
 23
-0.211325
 33
0.57735
  0
3DFACE
  5
c8
  8
MYLAYER1
 10
0.89032
 20
-0.208847
 30
0.404615
 11
0.788675
 21
-0.211325
 31
0.57735
 12
0.816497
 22
-0.408248
 32
0.408248
 13
0.816497
 23
-0.408248
 33
0.408248
  0
3DFACE
  5
c9
  8
MYLAYER1
 10
0.92388
 20
-0.382683
 30
0
 11
0.959683
 21
-0.198757
 31
0.198757
 12
0.89032
 22
-0.404615
 32
0.208847
 13
0.89032
 23
-0.404615
 33
0.208847
  0
3DFACE
  5
ca
  8
MYLAYER1
 10
0.959683
 20
-0.198757
 30
0.198757
 11
0.92388
 21
0
 31
0.382683
 12
0.89032
 22
-0.208847
 32
0.404615
 13
0.89032
 23
-0.208847
 33
0.404615
  0
3DFACE
  5
cb
  8
MYLAYER1
 10
0.89032
 20
-0.404615
 30
0.208847
 11
0.959683
 21
-0.198757
 31
0.198757
 12
0.89032
 22
-0.208847
 32
0.404615
 13
0.89032
 23
-0.208847
 33
0.404615
  0
3DFACE
  5
cc
  8
MYLAYER1
 10
0.89032
 20
-0.404615
 30
0.208847
 11
0.89032
 21
-0.208847
 31
0.404615
 12
0.816497
 22
-0.408248
 32
0.408248
 13
0.816497
 23
-0.408248
 33
0.408248
  0
3DFACE
  5
cd
  8
MYLAYER1
 10
0.92388
 20
-0.382683
 30
0
 11
0.89032
 21
-0.404615
 31
0.208847
 12
0.83147
 22
-0.55557
 32
0
 13
0.83147
 23
-0.55557
 33
0
  0
3DFACE
  5
ce
  8
MYLAYER1
 10
0.89032
 20
-0.404615
 30
0.208847
 11
0.816497
 21
-0.408248
 31
0.408248
 12
0.788675
 22
-0.57735
 32
0.211325
 13
0.788675
 23
-0.57735
 33
0.211325
  0
3DFACE
  5
cf
  8
MYLAYER1
 10
0.83147
 20
-0.55557
 30
0
 11
0.89032
 21
-0.404615
 31
0.208847
 12
0.788675
 22
-0.57735
 32
0.211325
 13
0.788675
 23
-0.57735
 33
0.211325
  0
3DFACE
  5
d0
  8
MYLAYER1
 10
0.83147
 20
-0.55557
 30
0
 11
0.788675
 21
-0.57735
 31
0.211325
 12
0.707107
 22
-0.707107
 32
0
 13
0.707107
 23
-0.707107
 33
0
  0
3DFACE
  5
d1
  8
MYLAYER1
 10
0.707107
 20
0
 30
0.707107
 11
0.55557
 21
0
 31
0.83147
 12
0.57735
 22
-0.211325
 32
0.788675
 13
0.57735
 23
-0.211325
 33
0.788675
  0
3DFACE
  5
d2
  8
MYLAYER1
 10
0.55557
 20
0
 30
0.83147
 11
0.382683
 21
0
 31
0.92388
 12
0.404615
 22
-0.208847
 32
0.89032
 13
0.404615
 23
-0.208847
 33
0.89032
  0
3DFACE
  5
d3
  8
MYLAYER1
 10
0.57735
 20
-0.211325
 30
0.788675
 11
0.55557
 21
0
 31
0.83147
 12
0.404615
 22
-0.208847
 32
0.89032
 13
0.404615
 23
-0.208847
 33
0.89032
  0
3DFACE
  5
d4
  8
MYLAYER1
 10
0.57735
 20
-0.211325
 30
0.788675
 11
0.404615
 21
-0.208847
 31
0.89032
 12
0.408248
 22
-0.408248
 32
0.816497
 13
0.408248
 23
-0.408248
 33
0.816497
  0
3DFACE
  5
d5
  8
MYLAYER1
 10
0.382683
 20
0
 30
0.92388
 11
0.19509
 21
0
 31
0.980785
 12
0.198757
 22
-0.198757
 32
0.959683
 13
0.198757
 23
-0.198757
 33
0.959683
  0
3DFACE
  5
d6
  8
MYLAYER1
 10
0.19509
 20
0
 30
0.980785
 11
0
 21
0
 31
1
 12
0
 22
-0.19509
 32
0.980785
 13
0
 23
-0.19509
 33
0.980785
  0
3DFACE
  5
d7
  8
MYLAYER1
 10
0.198757
 20
-0.198757
 30
0.959683
 11
0.19509
 21
0
 31
0.980785
 12
0
 22
-0.19509
 32
0.980785
 13
0
 23
-0.19509
 33
0.980785
  0
3DFACE
  5
d8
  8
MYLAYER1
 10
0.198757
 20
-0.198757
 30
0.959683
 11
0
 21
-0.19509
 31
0.980785
 12
0
 22
-0.382683
 32
0.92388
 13
0
 23
-0.382683
 33
0.92388
  0
3DFACE
  5
d9
  8
MYLAYER1
 10
0.408248
 20
-0.408248
 30
0.816497
 11
0.404615
 21
-0.208847
 31
0.89032
 12
0.208847
 22
-0.404615
 32
0.89032
 13
0.208847
 23
-0.404615
 33
0.89032
  0
3DFACE
  5
da
  8
MYLAYER1
 10
0.404615
 20
-0.208847
 30
0.89032
 11
0.382683
 21
0
 31
0.92388
 12
0.198757
 22
-0.198757
 32
0.959683
 13
0.198757
 23
-0.198757
 33
0.959683
  0
3DFACE
  5
db
  8
MYLAYER1
 10
0.208847
 20
-0.404615
 30
0.89032
 11
0.404615
 21
-0.208847
 31
0.89032
 12
0.198757
 22
-0.198757
 32
0.959683
 13
0.198757
 23
-0.198757
 33
0.959683
  0
3DFACE
  5
dc
  8
MYLAYER1
 10
0.208847
 20
-0.404615
 30
0.89032
 11
0.198757
 21
-0.198757
 31
0.959683
 12
0
 22
-0.382683
 32
0.92388
 13
0
 23
-0.382683
 33
0.92388
  0
3DFACE
  5
dd
  8
MYLAYER1
 10
0.408248
 20
-0.408248
 30
0.816497
 11
0.208847
 21
-0.404615
 31
0.89032
 12
0.211325
 22
-0.57735
 32
0.788675
 13
0.211325
 23
-0.57735
 33
0.788675
  0
3DFACE
  5
de
  8
MYLAYER1
 10
0.208847
 20
-0.404615
 30
0.89032
 11
0
 21
-0.382683
 31
0.92388
 12
0
 22
-0.55557
 32
0.83147
 13
0
 23
-0.55557
 33
0.83147
  0
3DFACE
  5
df
  8
MYLAYER1
 10
0.211325
 20
-0.57735
 30
0.788675
 11
0.208847
 21
-0.404615
 31
0.89032
 12
0
 22
-0.55557
 32
0.83147
 13
0
 23
-0.55557
 33
0.83147
  0
3DFACE
  5
e0
  8
MYLAYER1
 10
0.211325
 20
-0.57735
 30
0.788675
 11
0
 21
-0.55557
 31
0.83147
 12
0
 22
-0.707107
 32
0.707107
 13
0
 23
-0.707107
 33
0.707107
  0
3DFACE
  5
e1
  8
MYLAYER1
 10
0.707107
 20
-0.707107
 30
0
 11
0.788675
 21
-0.57735
 31
0.211325
 12
0.57735
 22
-0.788675
 32
0.211325
 13
0.57735
 23
-0.788675
 33
0.211325
  0
3DFACE
  5
e2
  8
MYLAYER1
 10
0.788675
 20
-0.57735
 30
0.211325
 11
0.816497
 21
-0.408248
 31
0.408248
 12
0.639602
 22
-0.639602
 32
0.426401
 13
0.639602
 23
-0.639602
 33
0.426401
  0
3DFACE
  5
e3
  8
MYLAYER1
 10
0.57735
 20
-0.788675
 30
0.211325
 11
0.788675
 21
-0.57735
 31
0.211325
 12
0.639602
 22
-0.639602
 32
0.426401
 13
0.639602
 23
-0.639602
 33
0.426401
  0
3DFACE
  5
e4
  8
MYLAYER1
 10
0.57735
 20
-0.788675
 30
0.211325
 11
0.639602
 21
-0.639602
 31
0.426401
 12
0.408248
 22
-0.816497
 32
0.408248
 13
0.408248
 23
-0.816497
 33
0.408248
  0
3DFACE
  5
e5
  8
MYLAYER1
 10
0.816497
 20
-0.408248
 30
0.408248
 11
0.788675
 21
-0.211325
 31
0.57735
 12
0.639602
 22
-0.426401
 32
0.639602
 13
0.639602
 23
-0.426401
 33
0.639602
  0
3DFACE
  5
e6
  8
MYLAYER1
 10
0.788675
 20
-0.211325
 30
0.57735
 11
0.707107
 21
0
 31
0.707107
 12
0.57735
 22
-0.211325
 32
0.788675
 13
0.57735
 23
-0.211325
 33
0.788675
  0
3DFACE
  5
e7
  8
MYLAYER1
 10
0.639602
 20
-0.426401
 30
0.639602
 11
0.788675
 21
-0.211325
 31
0.57735
 12
0.57735
 22
-0.211325
 32
0.788675
 13
0.57735
 23
-0.211325
 33
0.788675
  0
3DFACE
  5
e8
  8
MYLAYER1
 10
0.639602
 20
-0.426401
 30
0.639602
 11
0.57735
 21
-0.211325
 31
0.788675
 12
0.408248
 22
-0.408248
 32
0.816497
 13
0.408248
 23
-0.408248
 33
0.816497
  0
3DFACE
  5
e9
  8
MYLAYER1
 10
0.408248
 20
-0.816497
 30
0.408248
 11
0.639602
 21
-0.639602
 31
0.426401
 12
0.426401
 22
-0.639602
 32
0.639602
 13
0.426401
 23
-0.639602
 33
0.639602
  0
3DFACE
  5
ea
  8
MYLAYER1
 10
0.639602
 20
-0.639602
 30
0.426401
 11
0.816497
 21
-0.408248
 31
0.408248
 12
0.639602
 22
-0.426401
 32
0.639602
 13
0.639602
 23
-0.426401
 33
0.639602
  0
3DFACE
  5
eb
  8
MYLAYER1
 10
0.426401
 20
-0.639602
 30
0.639602
 11
0.639602
 21
-0.639602
 31
0.426401
 12
0.639602
 22
-0.426401
 32
0.639602
 13
0.639602
 23
-0.426401
 33
0.639602
  0
3DFACE
  5
ec
  8
MYLAYER1
 10
0.426401
 20
-0.639602
 30
0.639602
 11
0.639602
 21
-0.426401
 31
0.639602
 12
0.408248
 22
-0.408248
 32
0.816497
 13
0.408248
 23
-0.408248
 33
0.816497
  0
3DFACE
  5
ed
  8
MYLAYER1
 10
0.408248
 20
-0.816497
 30
0.408248
 11
0.426401
 21
-0.639602
 31
0.639602
 12
0.211325
 22
-0.788675
 32
0.57735
 13
0.211325
 23
-0.788675
 33
0.57735
  0
3DFACE
  5
ee
  8
MYLAYER1
 10
0.426401
 20
-0.639602
 30
0.639602
 11
0.408248
 21
-0.408248
 31
0.816497
 12
0.211325
 22
-0.57735
 32
0.788675
 13
0.211325
 23
-0.57735
 33
0.788675
  0
3DFACE
  5
ef
  8
MYLAYER1
 10
0.211325
 20
-0.788675
 30
0.57735
 11
0.426401
 21
-0.639602
 31
0.639602
 12
0.211325
 22
-0.57735
 32
0.788675
 13
0.211325
 23
-0.57735
 33
0.788675
  0
3DFACE
  5
f0
  8
MYLAYER1
 10
0.211325
 20
-0.788675
 30
0.57735
 11
0.211325
 21
-0.57735
 31
0.788675
 12
0
 22
-0.707107
 32
0.707107
 13
0
 23
-0.707107
 33
0.707107
  0
3DFACE
  5
f1
  8
MYLAYER1
 10
0.707107
 20
-0.707107
 30
0
 11
0.57735
 21
-0.788675
 31
0.211325
 12
0.55557
 22
-0.83147
 32
0
 13
0.55557
 23
-0.83147
 33
0
  0
3DFACE
  5
f2
  8
MYLAYER1
 10
0.57735
 20
-0.788675
 30
0.211325
 11
0.408248
 21
-0.816497
 31
0.408248
 12
0.404615
 22
-0.89032
 32
0.208847
 13
0.404615
 23
-0.89032
 33
0.208847
  0
3DFACE
  5
f3
  8
MYLAYER1
 10
0.55557
 20
-0.83147
 30
0
 11
0.57735
 21
-0.788675
 31
0.211325
 12
0.404615
 22
-0.89032
 32
0.208847
 13
0.404615
 23
-0.89032
 33
0.208847
  0
3DFACE
  5
f4
  8
MYLAYER1
 10
0.55557
 20
-0.83147
 30
0
 11
0.404615
 21
-0.89032
 31
0.208847
 12
0.382683
 22
-0.92388
 32
0
 13
0.382683
 23
-0.92388
 33
0
  0
3DFACE
  5
f5
  8
MYLAYER1
 10
0.408248
 20
-0.816497
 30
0.408248
 11
0.211325
 21
-0.788675
 31
0.57735
 12
0.208847
 22
-0.89032
 32
0.404615
 13
0.208847
 23
-0.89032
 33
0.404615
  0
3DFACE
  5
f6
  8
MYLAYER1
 10
0.211325
 20
-0.788675
 30
0.57735
 11
0
 21
-0.707107
 31
0.707107
 12
0
 22
-0.83147
 32
0.55557
 13
0
 23
-0.83147
 33
0.55557
  0
3DFACE
  5
f7
  8
MYLAYER1
 10
0.208847
 20
-0.89032
 30
0.404615
 11
0.211325
 21
-0.788675
 31
0.57735
 12
0
 22
-0.83147
 32
0.55557
 13
0
 23
-0.83147
 33
0.55557
  0
3DFACE
  5
f8
  8
MYLAYER1
 10
0.208847
 20
-0.89032
 30
0.404615
 11
0
 21
-0.83147
 31
0.55557
 12
0
 22
-0.92388
 32
0.382683
 13
0
 23
-0.92388
 33
0.382683
  0
3DFACE
  5
f9
  8
MYLAYER1
 10
0.382683
 20
-0.92388
 30
0
 11
0.404615
 21
-0.89032
 31
0.208847
 12
0.198757
 22
-0.959683
 32
0.198757
 13
0.198757
 23
-0.959683
 33
0.198757
  0
3DFACE
  5
fa
  8
MYLAYER1
 10
0.404615
 20
-0.89032
 30
0.208847
 11
0.408248
 21
-0.816497
 31
0.408248
 12
0.208847
 22
-0.89032
 32
0.404615
 13
0.208847
 23
-0.89032
 33
0.404615
  0
3DFACE
  5
fb
  8
MYLAYER1
 10
0.198757
 20
-0.959683
 30
0.198757
 11
0.404615
 21
-0.89032
 31
0.208847
 12
0.208847
 22
-0.89032
 32
0.404615
 13
0.208847
 23
-0.89032
 33
0.404615
  0
3DFACE
  5
fc
  8
MYLAYER1
 10
0.198757
 20
-0.959683
 30
0.198757
 11
0.208847
 21
-0.89032
 31
0.404615
 12
0
 22
-0.92388
 32
0.382683
 13
0
 23
-0.92388
 33
0.382683
  0
3DFACE
  5
fd
  8
MYLAYER1
 10
0.382683
 20
-0.92388
 30
0
 11
0.198757
 21
-0.959683
 31
0.198757
 12
0.19509
 22
-0.980785
 32
0
 13
0.19509
 23
-0.980785
 33
0
  0
3DFACE
  5
fe
  8
MYLAYER1
 10
0.198757
 20
-0.959683
 30
0.198757
 11
0
 21
-0.92388
 31
0.382683
 12
0
 22
-0.980785
 32
0.19509
 13
0
 23
-0.980785
 33
0.19509
  0
3DFACE
  5
ff
  8
MYLAYER1
 10
0.19509
 20
-0.980785
 30
0
 11
0.198757
 21
-0.959683
 31
0.198757
 12
0
 22
-0.980785
 32
0.19509
 13
0
 23
-0.980785
 33
0.19509
  0
3DFACE
  5
100
  8
MYLAYER1
 10
0.19509
 20
-0.980785
 30
0
 11
0
 21
-0.980785
 31
0.19509
 12
0
 22
-1
 32
0
 13
0
 23
-1
 33
0
  0
3DFACE
  5
101
  8
MYLAYER1
 10
0
 20
0
 30
-1
 11
0
 21
0.19509
 31
-0.980785
 12
0.19509
 22
0
 32
-0.980785
 13
0.19509
 23
0
 33
-0.980785
  0
3DFACE
  5
102
  8
MYLAYER1
 10
0
 20
0.19509
 30
-0.980785
 11
0
 21
0.382683
 31
-0.92388
 12
0.198757
 22
0.198757
 32
-0.959683
 13
0.198757
 23
0.198757
 33
-0.959683
  0
3DFACE
  5
103
  8
MYLAYER1
 10
0.19509
 20
0
 30
-0.980785
 11
0
 21
0.19509
 31
-0.980785
 12
0.198757
 22
0.198757
 32
-0.959683
 13
0.198757
 23
0.198757
 33
-0.959683
  0
3DFACE
  5
104
  8
MYLAYER1
 10
0.19509
 20
0
 30
-0.980785
 11
0.198757
 21
0.198757
 31
-0.959683
 12
0.382683
 22
0
 32
-0.92388
 13
0.382683
 23
0
 33
-0.92388
  0
3DFACE
  5
105
  8
MYLAYER1
 10
0
 20
0.382683
 30
-0.92388
 11
0
 21
0.55557
 31
-0.83147
 12
0.208847
 22
0.404615
 32
-0.89032
 13
0.208847
 23
0.404615
 33
-0.89032
  0
3DFACE
  5
106
  8
MYLAYER1
 10
0
 20
0.55557
 30
-0.83147
 11
0
 21
0.707107
 31
-0.707107
 12
0.211325
 22
0.57735
 32
-0.788675
 13
0.211325
 23
0.57735
 33
-0.788675
  0
3DFACE
  5
107
  8
MYLAYER1
 10
0.208847
 20
0.404615
 30
-0.89032
 11
0
 21
0.55557
 31
-0.83147
 12
0.211325
 22
0.57735
 32
-0.788675
 13
0.211325
 23
0.57735
 33
-0.788675
  0
3DFACE
  5
108
  8
MYLAYER1
 10
0.208847
 20
0.404615
 30
-0.89032
 11
0.211325
 21
0.57735
 31
-0.788675
 12
0.408248
 22
0.408248
 32
-0.816497
 13
0.408248
 23
0.408248
 33
-0.816497
  0
3DFACE
  5
109
  8
MYLAYER1
 10
0.382683
 20
0
 30
-0.92388
 11
0.198757
 21
0.198757
 31
-0.959683
 12
0.404615
 22
0.208847
 32
-0.89032
 13
0.404615
 23
0.208847
 33
-0.89032
  0
3DFACE
  5
10a
  8
MYLAYER1
 10
0.198757
 20
0.198757
 30
-0.959683
 11
0
 21
0.382683
 31
-0.92388
 12
0.208847
 22
0.404615
 32
-0.89032
 13
0.208847
 23
0.404615
 33
-0.89032
  0
3DFACE
  5
10b
  8
MYLAYER1
 10
0.404615
 20
0.208847
 30
-0.89032
 11
0.198757
 21
0.198757
 31
-0.959683
 12
0.208847
 22
0.404615
 32
-0.89032
 13
0.208847
 23
0.404615
 33
-0.89032
  0
3DFACE
  5
10c
  8
MYLAYER1
 10
0.404615
 20
0.208847
 30
-0.89032
 11
0.208847
 21
0.404615
 31
-0.89032
 12
0.408248
 22
0.408248
 32
-0.816497
 13
0.408248
 23
0.408248
 33
-0.816497
  0
3DFACE
  5
10d
  8
MYLAYER1
 10
0.382683
 20
0
 30
-0.92388
 11
0.404615
 21
0.208847
 31
-0.89032
 12
0.55557
 22
0
 32
-0.83147
 13
0.55557
 23
0
 33
-0.83147
  0
3DFACE
  5
10e
  8
MYLAYER1
 10
0.404615
 20
0.208847
 30
-0.89032
 11
0.408248
 21
0.408248
 31
-0.816497
 12
0.57735
 22
0.211325
 32
-0.788675
 13
0.57735
 23
0.211325
 33
-0.788675
  0
3DFACE
  5
10f
  8
MYLAYER1
 10
0.55557
 20
0
 30
-0.83147
 11
0.404615
 21
0.208847
 31
-0.89032
 12
0.57735
 22
0.211325
 32
-0.788675
 13
0.57735
 23
0.211325
 33
-0.788675
  0
3DFACE
  5
110
  8
MYLAYER1
 10
0.55557
 20
0
 30
-0.83147
 11
0.57735
 21
0.211325
 31
-0.788675
 12
0.707107
 22
0
 32
-0.707107
 13
0.707107
 23
0
 33
-0.707107
  0
3DFACE
  5
111
  8
MYLAYER1
 10
0
 20
0.707107
 30
-0.707107
 11
0
 21
0.83147
 31
-0.55557
 12
0.211325
 22
0.788675
 32
-0.57735
 13
0.211325
 23
0.788675
 33
-0.57735
  0
3DFACE
  5
112
  8
MYLAYER1
 10
0
 20
0.83147
 30
-0.55557
 11
0
 21
0.92388
 31
-0.382683
 12
0.208847
 22
0.89032
 32
-0.404615
 13
0.208847
 23
0.89032
 33
-0.404615
  0
3DFACE
  5
113
  8
MYLAYER1
 10
0.211325
 20
0.788675
 30
-0.57735
 11
0
 21
0.83147
 31
-0.55557
 12
0.208847
 22
0.89032
 32
-0.404615
 13
0.208847
 23
0.89032
 33
-0.404615
  0
3DFACE
  5
114
  8
MYLAYER1
 10
0.211325
 20
0.788675
 30
-0.57735
 11
0.208847
 21
0.89032
 31
-0.404615
 12
0.408248
 22
0.816497
 32
-0.408248
 13
0.408248
 23
0.816497
 33
-0.408248
  0
3DFACE
  5
115
  8
MYLAYER1
 10
0
 20
0.92388
 30
-0.382683
 11
0
 21
0.980785
 31
-0.19509
 12
0.198757
 22
0.959683
 32
-0.198757
 13
0.198757
 23
0.959683
 33
-0.198757
  0
3DFACE
  5
116
  8
MYLAYER1
 10
0
 20
0.980785
 30
-0.19509
 11
0
 21
1
 31
0
 12
0.19509
 22
0.980785
 32
0
 13
0.19509
 23
0.980785
 33
0
  0
3DFACE
  5
117
  8
MYLAYER1
 10
0.198757
 20
0.959683
 30
-0.198757
 11
0
 21
0.980785
 31
-0.19509
 12
0.19509
 22
0.980785
 32
0
 13
0.19509
 23
0.980785
 33
0
  0
3DFACE
  5
118
  8
MYLAYER1
 10
0.198757
 20
0.959683
 30
-0.198757
 11
0.19509
 21
0.980785
 31
0
 12
0.382683
 22
0.92388
 32
0
 13
0.382683
 23
0.92388
 33
0
  0
3DFACE
  5
119
  8
MYLAYER1
 10
0.408248
 20
0.816497
 30
-0.408248
 11
0.208847
 21
0.89032
 31
-0.404615
 12
0.404615
 22
0.89032
 32
-0.208847
 13
0.404615
 23
0.89032
 33
-0.208847
  0
3DFACE
  5
11a
  8
MYLAYER1
 10
0.208847
 20
0.89032
 30
-0.404615
 11
0
 21
0.92388
 31
-0.382683
 12
0.198757
 22
0.959683
 32
-0.198757
 13
0.198757
 23
0.959683
 33
-0.198757
  0
3DFACE
  5
11b
  8
MYLAYER1
 10
0.404615
 20
0.89032
 30
-0.208847
 11
0.208847
 21
0.89032
 31
-0.404615
 12
0.198757
 22
0.959683
 32
-0.198757
 13
0.198757
 23
0.959683
 33
-0.198757
  0
3DFACE
  5
11c
  8
MYLAYER1
 10
0.404615
 20
0.89032
 30
-0.208847
 11
0.198757
 21
0.959683
 31
-0.198757
 12
0.382683
 22
0.92388
 32
0
 13
0.382683
 23
0.92388
 33
0
  0
3DFACE
  5
11d
  8
MYLAYER1
 10
0.408248
 20
0.816497
 30
-0.408248
 11
0.404615
 21
0.89032
 31
-0.208847
 12
0.57735
 22
0.788675
 32
-0.211325
 13
0.57735
 23
0.788675
 33
-0.211325
  0
3DFACE
  5
11e
  8
MYLAYER1
 10
0.404615
 20
0.89032
 30
-0.208847
 11
0.382683
 21
0.92388
 31
0
 12
0.55557
 22
0.83147
 32
0
 13
0.55557
 23
0.83147
 33
0
  0
3DFACE
  5
11f
  8
MYLAYER1
 10
0.57735
 20
0.788675
 30
-0.211325
 11
0.404615
 21
0.89032
 31
-0.208847
 12
0.55557
 22
0.83147
 32
0
 13
0.55557
 23
0.83147
 33
0
  0
3DFACE
  5
120
  8
MYLAYER1
 10
0.57735
 20
0.788675
 30
-0.211325
 11
0.55557
 21
0.83147
 31
0
 12
0.707107
 22
0.707107
 32
0
 13
0.707107
 23
0.707107
 33
0
  0
3DFACE
  5
121
  8
MYLAYER1
 10
0.707107
 20
0
 30
-0.707107
 11
0.57735
 21
0.211325
 31
-0.788675
 12
0.788675
 22
0.211325
 32
-0.57735
 13
0.788675
 23
0.211325
 33
-0.57735
  0
3DFACE
  5
122
  8
MYLAYER1
 10
0.57735
 20
0.211325
 30
-0.788675
 11
0.408248
 21
0.408248
 31
-0.816497
 12
0.639602
 22
0.426401
 32
-0.639602
 13
0.639602
 23
0.426401
 33
-0.639602
  0
3DFACE
  5
123
  8
MYLAYER1
 10
0.788675
 20
0.211325
 30
-0.57735
 11
0.57735
 21
0.211325
 31
-0.788675
 12
0.639602
 22
0.426401
 32
-0.639602
 13
0.639602
 23
0.426401
 33
-0.639602
  0
3DFACE
  5
124
  8
MYLAYER1
 10
0.788675
 20
0.211325
 30
-0.57735
 11
0.639602
 21
0.426401
 31
-0.639602
 12
0.816497
 22
0.408248
 32
-0.408248
 13
0.816497
 23
0.408248
 33
-0.408248
  0
3DFACE
  5
125
  8
MYLAYER1
 10
0.408248
 20
0.408248
 30
-0.816497
 11
0.211325
 21
0.57735
 31
-0.788675
 12
0.426401
 22
0.639602
 32
-0.639602
 13
0.426401
 23
0.639602
 33
-0.639602
  0
3DFACE
  5
126
  8
MYLAYER1
 10
0.211325
 20
0.57735
 30
-0.788675
 11
0
 21
0.707107
 31
-0.707107
 12
0.211325
 22
0.788675
 32
-0.57735
 13
0.211325
 23
0.788675
 33
-0.57735
  0
3DFACE
  5
127
  8
MYLAYER1
 10
0.426401
 20
0.639602
 30
-0.639602
 11
0.211325
 21
0.57735
 31
-0.788675
 12
0.211325
 22
0.788675
 32
-0.57735
 13
0.211325
 23
0.788675
 33
-0.57735
  0
3DFACE
  5
128
  8
MYLAYER1
 10
0.426401
 20
0.639602
 30
-0.639602
 11
0.211325
 21
0.788675
 31
-0.57735
 12
0.408248
 22
0.816497
 32
-0.408248
 13
0.408248
 23
0.816497
 33
-0.408248
  0
3DFACE
  5
129
  8
MYLAYER1
 10
0.816497
 20
0.408248
 30
-0.408248
 11
0.639602
 21
0.426401
 31
-0.639602
 12
0.639602
 22
0.639602
 32
-0.426401
 13
0.639602
 23
0.639602
 33
-0.426401
  0
3DFACE
  5
12a
  8
MYLAYER1
 10
0.639602
 20
0.426401
 30
-0.639602
 11
0.408248
 21
0.408248
 31
-0.816497
 12
0.426401
 22
0.639602
 32
-0.639602
 13
0.426401
 23
0.639602
 33
-0.639602
  0
3DFACE
  5
12b
  8
MYLAYER1
 10
0.639602
 20
0.639602
 30
-0.426401
 11
0.639602
 21
0.426401
 31
-0.639602
 12
0.426401
 22
0.639602
 32
-0.639602
 13
0.426401
 23
0.639602
 33
-0.639602
  0
3DFACE
  5
12c
  8
MYLAYER1
 10
0.639602
 20
0.639602
 30
-0.426401
 11
0.426401
 21
0.639602
 31
-0.639602
 12
0.408248
 22
0.816497
 32
-0.408248
 13
0.408248
 23
0.816497
 33
-0.408248
  0
3DFACE
  5
12d
  8
MYLAYER1
 10
0.816497
 20
0.408248
 30
-0.408248
 11
0.639602
 21
0.639602
 31
-0.426401
 12
0.788675
 22
0.57735
 32
-0.211325
 13
0.788675
 23
0.57735
 33
-0.211325
  0
3DFACE
  5
12e
  8
MYLAYER1
 10
0.639602
 20
0.639602
 30
-0.426401
 11
0.408248
 21
0.816497
 31
-0.408248
 12
0.57735
 22
0.788675
 32
-0.211325
 13
0.57735
 23
0.788675
 33
-0.211325
  0
3DFACE
  5
12f
  8
MYLAYER1
 10
0.788675
 20
0.57735
 30
-0.211325
 11
0.639602
 21
0.639602
 31
-0.426401
 12
0.57735
 22
0.788675
 32
-0.211325
 13
0.57735
 23
0.788675
 33
-0.211325
  0
3DFACE
  5
130
  8
MYLAYER1
 10
0.788675
 20
0.57735
 30
-0.211325
 11
0.57735
 21
0.788675
 31
-0.211325
 12
0.707107
 22
0.707107
 32
0
 13
0.707107
 23
0.707107
 33
0
  0
3DFACE
  5
131
  8
MYLAYER1
 10
0.707107
 20
0
 30
-0.707107
 11
0.788675
 21
0.211325
 31
-0.57735
 12
0.83147
 22
0
 32
-0.55557
 13
0.83147
 23
0
 33
-0.55557
  0
3DFACE
  5
132
  8
MYLAYER1
 10
0.788675
 20
0.211325
 30
-0.57735
 11
0.816497
 21
0.408248
 31
-0.408248
 12
0.89032
 22
0.208847
 32
-0.404615
 13
0.89032
 23
0.208847
 33
-0.404615
  0
3DFACE
  5
133
  8
MYLAYER1
 10
0.83147
 20
0
 30
-0.55557
 11
0.788675
 21
0.211325
 31
-0.57735
 12
0.89032
 22
0.208847
 32
-0.404615
 13
0.89032
 23
0.208847
 33
-0.404615
  0
3DFACE
  5
134
  8
MYLAYER1
 10
0.83147
 20
0
 30
-0.55557
 11
0.89032
 21
0.208847
 31
-0.404615
 12
0.92388
 22
0
 32
-0.382683
 13
0.92388
 23
0
 33
-0.382683
  0
3DFACE
  5
135
  8
MYLAYER1
 10
0.816497
 20
0.408248
 30
-0.408248
 11
0.788675
 21
0.57735
 31
-0.211325
 12
0.89032
 22
0.404615
 32
-0.208847
 13
0.89032
 23
0.404615
 33
-0.208847
  0
3DFACE
  5
136
  8
MYLAYER1
 10
0.788675
 20
0.57735
 30
-0.211325
 11
0.707107
 21
0.707107
 31
0
 12
0.83147
 22
0.55557
 32
0
 13
0.83147
 23
0.55557
 33
0
  0
3DFACE
  5
137
  8
MYLAYER1
 10
0.89032
 20
0.404615
 30
-0.208847
 11
0.788675
 21
0.57735
 31
-0.211325
 12
0.83147
 22
0.55557
 32
0
 13
0.83147
 23
0.55557
 33
0
  0
3DFACE
  5
138
  8
MYLAYER1
 10
0.89032
 20
0.404615
 30
-0.208847
 11
0.83147
 21
0.55557
 31
0
 12
0.92388
 22
0.382683
 32
0
 13
0.92388
 23
0.382683
 33
0
  0
3DFACE
  5
139
  8
MYLAYER1
 10
0.92388
 20
0
 30
-0.382683
 11
0.89032
 21
0.208847
 31
-0.404615
 12
0.959683
 22
0.198757
 32
-0.198757
 13
0.959683
 23
0.198757
 33
-0.198757
  0
3DFACE
  5
13a
  8
MYLAYER1
 10
0.89032
 20
0.208847
 30
-0.404615
 11
0.816497
 21
0.408248
 31
-0.408248
 12
0.89032
 22
0.404615
 32
-0.208847
 13
0.89032
 23
0.404615
 33
-0.208847
  0
3DFACE
  5
13b
  8
MYLAYER1
 10
0.959683
 20
0.198757
 30
-0.198757
 11
0.89032
 21
0.208847
 31
-0.404615
 12
0.89032
 22
0.404615
 32
-0.208847
 13
0.89032
 23
0.404615
 33
-0.208847
  0
3DFACE
  5
13c
  8
MYLAYER1
 10
0.959683
 20
0.198757
 30
-0.198757
 11
0.89032
 21
0.404615
 31
-0.208847
 12
0.92388
 22
0.382683
 32
0
 13
0.92388
 23
0.382683
 33
0
  0
3DFACE
  5
13d
  8
MYLAYER1
 10
0.92388
 20
0
 30
-0.382683
 11
0.959683
 21
0.198757
 31
-0.198757
 12
0.980785
 22
0
 32
-0.19509
 13
0.980785
 23
0
 33
-0.19509
  0
3DFACE
  5
13e
  8
MYLAYER1
 10
0.959683
 20
0.198757
 30
-0.198757
 11
0.92388
 21
0.382683
 31
0
 12
0.980785
 22
0.19509
 32
0
 13
0.980785
 23
0.19509
 33
0
  0
3DFACE
  5
13f
  8
MYLAYER1
 10
0.980785
 20
0
 30
-0.19509
 11
0.959683
 21
0.198757
 31
-0.198757
 12
0.980785
 22
0.19509
 32
0
 13
0.980785
 23
0.19509
 33
0
  0
3DFACE
  5
140
  8
MYLAYER1
 10
0.980785
 20
0
 30
-0.19509
 11
0.980785
 21
0.19509
 31
0
 12
1
 22
0
 32
0
 13
1
 23
0
 33
0
  0
3DFACE
  5
141
  8
MYLAYER1
 10
0
 20
0
 30
-1
 11
-0.19509
 21
0
 31
-0.980785
 12
0
 22
0.19509
 32
-0.980785
 13
0
 23
0.19509
 33
-0.980785
  0
3DFACE
  5
142
  8
MYLAYER1
 10
-0.19509
 20
0
 30
-0.980785
 11
-0.382683
 21
0
 31
-0.92388
 12
-0.198757
 22
0.198757
 32
-0.959683
 13
-0.198757
 23
0.198757
 33
-0.959683
  0
3DFACE
  5
143
  8
MYLAYER1
 10
0
 20
0.19509
 30
-0.980785
 11
-0.19509
 21
0
 31
-0.980785
 12
-0.198757
 22
0.198757
 32
-0.959683
 13
-0.198757
 23
0.198757
 33
-0.959683
  0
3DFACE
  5
144
  8
MYLAYER1
 10
0
 20
0.19509
 30
-0.980785
 11
-0.198757
 21
0.198757
 31
-0.959683
 12
0
 22
0.382683
 32
-0.92388
 13
0
 23
0.382683
 33
-0.92388
  0
3DFACE
  5
145
  8
MYLAYER1
 10
-0.382683
 20
0
 30
-0.92388
 11
-0.55557
 21
0
 31
-0.83147
 12
-0.404615
 22
0.208847
 32
-0.89032
 13
-0.404615
 23
0.208847
 33
-0.89032
  0
3DFACE
  5
146
  8
MYLAYER1
 10
-0.55557
 20
0
 30
-0.83147
 11
-0.707107
 21
0
 31
-0.707107
 12
-0.57735
 22
0.211325
 32
-0.788675
 13
-0.57735
 23
0.211325
 33
-0.788675
  0
3DFACE
  5
147
  8
MYLAYER1
 10
-0.404615
 20
0.208847
 30
-0.89032
 11
-0.55557
 21
0
 31
-0.83147
 12
-0.57735
 22
0.211325
 32
-0.788675
 13
-0.57735
 23
0.211325
 33
-0.788675
  0
3DFACE
  5
148
  8
MYLAYER1
 10
-0.404615
 20
0.208847
 30
-0.89032
 11
-0.57735
 21
0.211325
 31
-0.788675
 12
-0.408248
 22
0.408248
 32
-0.816497
 13
-0.408248
 23
0.408248
 33
-0.816497
  0
3DFACE
  5
149
  8
MYLAYER1
 10
0
 20
0.382683
 30
-0.92388
 11
-0.198757
 21
0.198757
 31
-0.959683
 12
-0.208847
 22
0.404615
 32
-0.89032
 13
-0.208847
 23
0.404615
 33
-0.89032
  0
3DFACE
  5
14a
  8
MYLAYER1
 10
-0.198757
 20
0.198757
 30
-0.959683
 11
-0.382683
 21
0
 31
-0.92388
 12
-0.404615
 22
0.208847
 32
-0.89032
 13
-0.404615
 23
0.208847
 33
-0.89032
  0
3DFACE
  5
14b
  8
MYLAYER1
 10
-0.208847
 20
0.404615
 30
-0.89032
 11
-0.198757
 21
0.198757
 31
-0.959683
 12
-0.404615
 22
0.208847
 32
-0.89032
 13
-0.404615
 23
0.208847
 33
-0.89032
  0
3DFACE
  5
14c
  8
MYLAYER1
 10
-0.208847
 20
0.404615
 30
-0.89032
 11
-0.404615
 21
0.208847
 31
-0.89032
 12
-0.408248
 22
0.408248
 32
-0.816497
 13
-0.408248
 23
0.408248
 33
-0.816497
  0
3DFACE
  5
14d
  8
MYLAYER1
 10
0
 20
0.382683
 30
-0.92388
 11
-0.208847
 21
0.404615
 31
-0.89032
 12
0
 22
0.55557
 32
-0.83147
 13
0
 23
0.55557
 33
-0.83147
  0
3DFACE
  5
14e
  8
MYLAYER1
 10
-0.208847
 20
0.404615
 30
-0.89032
 11
-0.408248
 21
0.408248
 31
-0.816497
 12
-0.211325
 22
0.57735
 32
-0.788675
 13
-0.211325
 23
0.57735
 33
-0.788675
  0
3DFACE
  5
14f
  8
MYLAYER1
 10
0
 20
0.55557
 30
-0.83147
 11
-0.208847
 21
0.404615
 31
-0.89032
 12
-0.211325
 22
0.57735
 32
-0.788675
 13
-0.211325
 23
0.57735
 33
-0.788675
  0
3DFACE
  5
150
  8
MYLAYER1
 10
0
 20
0.55557
 30
-0.83147
 11
-0.211325
 21
0.57735
 31
-0.788675
 12
0
 22
0.707107
 32
-0.707107
 13
0
 23
0.707107
 33
-0.707107
  0
3DFACE
  5
151
  8
MYLAYER1
 10
-0.707107
 20
0
 30
-0.707107
 11
-0.83147
 21
0
 31
-0.55557
 12
-0.788675
 22
0.211325
 32
-0.57735
 13
-0.788675
 23
0.211325
 33
-0.57735
  0
3DFACE
  5
152
  8
MYLAYER1
 10
-0.83147
 20
0
 30
-0.55557
 11
-0.92388
 21
0
 31
-0.382683
 12
-0.89032
 22
0.208847
 32
-0.404615
 13
-0.89032
 23
0.208847
 33
-0.404615
  0
3DFACE
  5
153
  8
MYLAYER1
 10
-0.788675
 20
0.211325
 30
-0.57735
 11
-0.83147
 21
0
 31
-0.55557
 12
-0.89032
 22
0.208847
 32
-0.404615
 13
-0.89032
 23
0.208847
 33
-0.404615
  0
3DFACE
  5
154
  8
MYLAYER1
 10
-0.788675
 20
0.211325
 30
-0.57735
 11
-0.89032
 21
0.208847
 31
-0.404615
 12
-0.816497
 22
0.408248
 32
-0.408248
 13
-0.816497
 23
0.408248
 33
-0.408248
  0
3DFACE
  5
155
  8
MYLAYER1
 10
-0.92388
 20
0
 30
-0.382683
 11
-0.980785
 21
0
 31
-0.19509
 12
-0.959683
 22
0.198757
 32
-0.198757
 13
-0.959683
 23
0.198757
 33
-0.198757
  0
3DFACE
  5
156
  8
MYLAYER1
 10
-0.980785
 20
0
 30
-0.19509
 11
-1
 21
0
 31
0
 12
-0.980785
 22
0.19509
 32
0
 13
-0.980785
 23
0.19509
 33
0
  0
3DFACE
  5
157
  8
MYLAYER1
 10
-0.959683
 20
0.198757
 30
-0.198757
 11
-0.980785
 21
0
 31
-0.19509
 12
-0.980785
 22
0.19509
 32
0
 13
-0.980785
 23
0.19509
 33
0
  0
3DFACE
  5
158
  8
MYLAYER1
 10
-0.959683
 20
0.198757
 30
-0.198757
 11
-0.980785
 21
0.19509
 31
0
 12
-0.92388
 22
0.382683
 32
0
 13
-0.92388
 23
0.382683
 33
0
  0
3DFACE
  5
159
  8
MYLAYER1
 10
-0.816497
 20
0.408248
 30
-0.408248
 11
-0.89032
 21
0.208847
 31
-0.404615
 12
-0.89032
 22
0.404615
 32
-0.208847
 13
-0.89032
 23
0.404615
 33
-0.208847
  0
3DFACE
  5
15a
  8
MYLAYER1
 10
-0.89032
 20
0.208847
 30
-0.404615
 11
-0.92388
 21
0
 31
-0.382683
 12
-0.959683
 22
0.198757
 32
-0.198757
 13
-0.959683
 23
0.198757
 33
-0.198757
  0
3DFACE
  5
15b
  8
MYLAYER1
 10
-0.89032
 20
0.404615
 30
-0.208847
 11
-0.89032
 21
0.208847
 31
-0.404615
 12
-0.959683
 22
0.198757
 32
-0.198757
 13
-0.959683
 23
0.198757
 33
-0.198757
  0
3DFACE
  5
15c
  8
MYLAYER1
 10
-0.89032
 20
0.404615
 30
-0.208847
 11
-0.959683
 21
0.198757
 31
-0.198757
 12
-0.92388
 22
0.382683
 32
0
 13
-0.92388
 23
0.382683
 33
0
  0
3DFACE
  5
15d
  8
MYLAYER1
 10
-0.816497
 20
0.408248
 30
-0.408248
 11
-0.89032
 21
0.404615
 31
-0.208847
 12
-0.788675
 22
0.57735
 32
-0.211325
 13
-0.788675
 23
0.57735
 33
-0.211325
  0
3DFACE
  5
15e
  8
MYLAYER1
 10
-0.89032
 20
0.404615
 30
-0.208847
 11
-0.92388
 21
0.382683
 31
0
 12
-0.83147
 22
0.55557
 32
0
 13
-0.83147
 23
0.55557
 33
0
  0
3DFACE
  5
15f
  8
MYLAYER1
 10
-0.788675
 20
0.57735
 30
-0.211325
 11
-0.89032
 21
0.404615
 31
-0.208847
 12
-0.83147
 22
0.55557
 32
0
 13
-0.83147
 23
0.55557
 33
0
  0
3DFACE
  5
160
  8
MYLAYER1
 10
-0.788675
 20
0.57735
 30
-0.211325
 11
-0.83147
 21
0.55557
 31
0
 12
-0.707107
 22
0.707107
 32
0
 13
-0.707107
 23
0.707107
 33
0
  0
3DFACE
  5
161
  8
MYLAYER1
 10
0
 20
0.707107
 30
-0.707107
 11
-0.211325
 21
0.57735
 31
-0.788675
 12
-0.211325
 22
0.788675
 32
-0.57735
 13
-0.211325
 23
0.788675
 33
-0.57735
  0
3DFACE
  5
162
  8
MYLAYER1
 10
-0.211325
 20
0.57735
 30
-0.788675
 11
-0.408248
 21
0.408248
 31
-0.816497
 12
-0.426401
 22
0.639602
 32
-0.639602
 13
-0.426401
 23
0.639602
 33
-0.639602
  0
3DFACE
  5
163
  8
MYLAYER1
 10
-0.211325
 20
0.788675
 30
-0.57735
 11
-0.211325
 21
0.57735
 31
-0.788675
 12
-0.426401
 22
0.639602
 32
-0.639602
 13
-0.426401
 23
0.639602
 33
-0.639602
  0
3DFACE
  5
164
  8
MYLAYER1
 10
-0.211325
 20
0.788675
 30
-0.57735
 11
-0.426401
 21
0.639602
 31
-0.639602
 12
-0.408248
 22
0.816497
 32
-0.408248
 13
-0.408248
 23
0.816497
 33
-0.408248
  0
3DFACE
  5
165
  8
MYLAYER1
 10
-0.408248
 20
0.408248
 30
-0.816497
 11
-0.57735
 21
0.211325
 31
-0.788675
 12
-0.639602
 22
0.426401
 32
-0.639602
 13
-0.639602
 23
0.426401
 33
-0.639602
  0
3DFACE
  5
166
  8
MYLAYER1
 10
-0.57735
 20
0.211325
 30
-0.788675
 11
-0.707107
 21
0
 31
-0.707107
 12
-0.788675
 22
0.211325
 32
-0.57735
 13
-0.788675
 23
0.211325
 33
-0.57735
  0
3DFACE
  5
167
  8
MYLAYER1
 10
-0.639602
 20
0.426401
 30
-0.639602
 11
-0.57735
 21
0.211325
 31
-0.788675
 12
-0.788675
 22
0.211325
 32
-0.57735
 13
-0.788675
 23
0.211325
 33
-0.57735
  0
3DFACE
  5
168
  8
MYLAYER1
 10
-0.639602
 20
0.426401
 30
-0.639602
 11
-0.788675
 21
0.211325
 31
-0.57735
 12
-0.816497
 22
0.408248
 32
-0.408248
 13
-0.816497
 23
0.408248
 33
-0.408248
  0
3DFACE
  5
169
  8
MYLAYER1
 10
-0.408248
 20
0.816497
 30
-0.408248
 11
-0.426401
 21
0.639602
 31
-0.639602
 12
-0.639602
 22
0.639602
 32
-0.426401
 13
-0.639602
 23
0.639602
 33
-0.426401
  0
3DFACE
  5
16a
  8
MYLAYER1
 10
-0.426401
 20
0.639602
 30
-0.639602
 11
-0.408248
 21
0.408248
 31
-0.816497
 12
-0.639602
 22
0.426401
 32
-0.639602
 13
-0.639602
 23
0.426401
 33
-0.639602
  0
3DFACE
  5
16b
  8
MYLAYER1
 10
-0.639602
 20
0.639602
 30
-0.426401
 11
-0.426401
 21
0.639602
 31
-0.639602
 12
-0.639602
 22
0.426401
 32
-0.639602
 13
-0.639602
 23
0.426401
 33
-0.639602
  0
3DFACE
  5
16c
  8
MYLAYER1
 10
-0.639602
 20
0.639602
 30
-0.426401
 11
-0.639602
 21
0.426401
 31
-0.639602
 12
-0.816497
 22
0.408248
 32
-0.408248
 13
-0.816497
 23
0.408248
 33
-0.408248
  0
3DFACE
  5
16d
  8
MYLAYER1
 10
-0.408248
 20
0.816497
 30
-0.408248
 11
-0.639602
 21
0.639602
 31
-0.426401
 12
-0.57735
 22
0.788675
 32
-0.211325
 13
-0.57735
 23
0.788675
 33
-0.211325
  0
3DFACE
  5
16e
  8
MYLAYER1
 10
-0.639602
 20
0.639602
 30
-0.426401
 11
-0.816497
 21
0.408248
 31
-0.408248
 12
-0.788675
 22
0.57735
 32
-0.211325
 13
-0.788675
 23
0.57735
 33
-0.211325
  0
3DFACE
  5
16f
  8
MYLAYER1
 10
-0.57735
 20
0.788675
 30
-0.211325
 11
-0.639602
 21
0.639602
 31
-0.426401
 12
-0.788675
 22
0.57735
 32
-0.211325
 13
-0.788675
 23
0.57735
 33
-0.211325
  0
3DFACE
  5
170
  8
MYLAYER1
 10
-0.57735
 20
0.788675
 30
-0.211325
 11
-0.788675
 21
0.57735
 31
-0.211325
 12
-0.707107
 22
0.707107
 32
0
 13
-0.707107
 23
0.707107
 33
0
  0
3DFACE
  5
171
  8
MYLAYER1
 10
0
 20
0.707107
 30
-0.707107
 11
-0.211325
 21
0.788675
 31
-0.57735
 12
0
 22
0.83147
 32
-0.55557
 13
0
 23
0.83147
 33
-0.55557
  0
3DFACE
  5
172
  8
MYLAYER1
 10
-0.211325
 20
0.788675
 30
-0.57735
 11
-0.408248
 21
0.816497
 31
-0.408248
 12
-0.208847
 22
0.89032
 32
-0.404615
 13
-0.208847
 23
0.89032
 33
-0.404615
  0
3DFACE
  5
173
  8
MYLAYER1
 10
0
 20
0.83147
 30
-0.55557
 11
-0.211325
 21
0.788675
 31
-0.57735
 12
-0.208847
 22
0.89032
 32
-0.404615
 13
-0.208847
 23
0.89032
 33
-0.404615
  0
3DFACE
  5
174
  8
MYLAYER1
 10
0
 20
0.83147
 30
-0.55557
 11
-0.208847
 21
0.89032
 31
-0.404615
 12
0
 22
0.92388
 32
-0.382683
 13
0
 23
0.92388
 33
-0.382683
  0
3DFACE
  5
175
  8
MYLAYER1
 10
-0.408248
 20
0.816497
 30
-0.408248
 11
-0.57735
 21
0.788675
 31
-0.211325
 12
-0.404615
 22
0.89032
 32
-0.208847
 13
-0.404615
 23
0.89032
 33
-0.208847
  0
3DFACE
  5
176
  8
MYLAYER1
 10
-0.57735
 20
0.788675
 30
-0.211325
 11
-0.707107
 21
0.707107
 31
0
 12
-0.55557
 22
0.83147
 32
0
 13
-0.55557
 23
0.83147
 33
0
  0
3DFACE
  5
177
  8
MYLAYER1
 10
-0.404615
 20
0.89032
 30
-0.208847
 11
-0.57735
 21
0.788675
 31
-0.211325
 12
-0.55557
 22
0.83147
 32
0
 13
-0.55557
 23
0.83147
 33
0
  0
3DFACE
  5
178
  8
MYLAYER1
 10
-0.404615
 20
0.89032
 30
-0.208847
 11
-0.55557
 21
0.83147
 31
0
 12
-0.382683
 22
0.92388
 32
0
 13
-0.382683
 23
0.92388
 33
0
  0
3DFACE
  5
179
  8
MYLAYER1
 10
0
 20
0.92388
 30
-0.382683
 11
-0.208847
 21
0.89032
 31
-0.404615
 12
-0.198757
 22
0.959683
 32
-0.198757
 13
-0.198757
 23
0.959683
 33
-0.198757
  0
3DFACE
  5
17a
  8
MYLAYER1
 10
-0.208847
 20
0.89032
 30
-0.404615
 11
-0.408248
 21
0.816497
 31
-0.408248
 12
-0.404615
 22
0.89032
 32
-0.208847
 13
-0.404615
 23
0.89032
 33
-0.208847
  0
3DFACE
  5
17b
  8
MYLAYER1
 10
-0.198757
 20
0.959683
 30
-0.198757
 11
-0.208847
 21
0.89032
 31
-0.404615
 12
-0.404615
 22
0.89032
 32
-0.208847
 13
-0.404615
 23
0.89032
 33
-0.208847
  0
3DFACE
  5
17c
  8
MYLAYER1
 10
-0.198757
 20
0.959683
 30
-0.198757
 11
-0.404615
 21
0.89032
 31
-0.208847
 12
-0.382683
 22
0.92388
 32
0
 13
-0.382683
 23
0.92388
 33
0
  0
3DFACE
  5
17d
  8
MYLAYER1
 10
0
 20
0.92388
 30
-0.382683
 11
-0.198757
 21
0.959683
 31
-0.198757
 12
0
 22
0.980785
 32
-0.19509
 13
0
 23
0.980785
 33
-0.19509
  0
3DFACE
  5
17e
  8
MYLAYER1
 10
-0.198757
 20
0.959683
 30
-0.198757
 11
-0.382683
 21
0.92388
 31
0
 12
-0.19509
 22
0.980785
 32
0
 13
-0.19509
 23
0.980785
 33
0
  0
3DFACE
  5
17f
  8
MYLAYER1
 10
0
 20
0.980785
 30
-0.19509
 11
-0.198757
 21
0.959683
 31
-0.198757
 12
-0.19509
 22
0.980785
 32
0
 13
-0.19509
 23
0.980785
 33
0
  0
3DFACE
  5
180
  8
MYLAYER1
 10
0
 20
0.980785
 30
-0.19509
 11
-0.19509
 21
0.980785
 31
0
 12
0
 22
1
 32
0
 13
0
 23
1
 33
0
  0
3DFACE
  5
181
  8
MYLAYER1
 10
0
 20
0
 30
-1
 11
0
 21
-0.19509
 31
-0.980785
 12
-0.19509
 22
0
 32
-0.980785
 13
-0.19509
 23
0
 33
-0.980785
  0
3DFACE
  5
182
  8
MYLAYER1
 10
0
 20
-0.19509
 30
-0.980785
 11
0
 21
-0.382683
 31
-0.92388
 12
-0.198757
 22
-0.198757
 32
-0.959683
 13
-0.198757
 23
-0.198757
 33
-0.959683
  0
3DFACE
  5
183
  8
MYLAYER1
 10
-0.19509
 20
0
 30
-0.980785
 11
0
 21
-0.19509
 31
-0.980785
 12
-0.198757
 22
-0.198757
 32
-0.959683
 13
-0.198757
 23
-0.198757
 33
-0.959683
  0
3DFACE
  5
184
  8
MYLAYER1
 10
-0.19509
 20
0
 30
-0.980785
 11
-0.198757
 21
-0.198757
 31
-0.959683
 12
-0.382683
 22
0
 32
-0.92388
 13
-0.382683
 23
0
 33
-0.92388
  0
3DFACE
  5
185
  8
MYLAYER1
 10
0
 20
-0.382683
 30
-0.92388
 11
0
 21
-0.55557
 31
-0.83147
 12
-0.208847
 22
-0.404615
 32
-0.89032
 13
-0.208847
 23
-0.404615
 33
-0.89032
  0
3DFACE
  5
186
  8
MYLAYER1
 10
0
 20
-0.55557
 30
-0.83147
 11
0
 21
-0.707107
 31
-0.707107
 12
-0.211325
 22
-0.57735
 32
-0.788675
 13
-0.211325
 23
-0.57735
 33
-0.788675
  0
3DFACE
  5
187
  8
MYLAYER1
 10
-0.208847
 20
-0.404615
 30
-0.89032
 11
0
 21
-0.55557
 31
-0.83147
 12
-0.211325
 22
-0.57735
 32
-0.788675
 13
-0.211325
 23
-0.57735
 33
-0.788675
  0
3DFACE
  5
188
  8
MYLAYER1
 10
-0.208847
 20
-0.404615
 30
-0.89032
 11
-0.211325
 21
-0.57735
 31
-0.788675
 12
-0.408248
 22
-0.408248
 32
-0.816497
 13
-0.408248
 23
-0.408248
 33
-0.816497
  0
3DFACE
  5
189
  8
MYLAYER1
 10
-0.382683
 20
0
 30
-0.92388
 11
-0.198757
 21
-0.198757
 31
-0.959683
 12
-0.404615
 22
-0.208847
 32
-0.89032
 13
-0.404615
 23
-0.208847
 33
-0.89032
  0
3DFACE
  5
18a
  8
MYLAYER1
 10
-0.198757
 20
-0.198757
 30
-0.959683
 11
0
 21
-0.382683
 31
-0.92388
 12
-0.208847
 22
-0.404615
 32
-0.89032
 13
-0.208847
 23
-0.404615
 33
-0.89032
  0
3DFACE
  5
18b
  8
MYLAYER1
 10
-0.404615
 20
-0.208847
 30
-0.89032
 11
-0.198757
 21
-0.198757
 31
-0.959683
 12
-0.208847
 22
-0.404615
 32
-0.89032
 13
-0.208847
 23
-0.404615
 33
-0.89032
  0
3DFACE
  5
18c
  8
MYLAYER1
 10
-0.404615
 20
-0.208847
 30
-0.89032
 11
-0.208847
 21
-0.404615
 31
-0.89032
 12
-0.408248
 22
-0.408248
 32
-0.816497
 13
-0.408248
 23
-0.408248
 33
-0.816497
  0
3DFACE
  5
18d
  8
MYLAYER1
 10
-0.382683
 20
0
 30
-0.92388
 11
-0.404615
 21
-0.208847
 31
-0.89032
 12
-0.55557
 22
0
 32
-0.83147
 13
-0.55557
 23
0
 33
-0.83147
  0
3DFACE
  5
18e
  8
MYLAYER1
 10
-0.404615
 20
-0.208847
 30
-0.89032
 11
-0.408248
 21
-0.408248
 31
-0.816497
 12
-0.57735
 22
-0.211325
 32
-0.788675
 13
-0.57735
 23
-0.211325
 33
-0.788675
  0
3DFACE
  5
18f
  8
MYLAYER1
 10
-0.55557
 20
0
 30
-0.83147
 11
-0.404615
 21
-0.208847
 31
-0.89032
 12
-0.57735
 22
-0.211325
 32
-0.788675
 13
-0.57735
 23
-0.211325
 33
-0.788675
  0
3DFACE
  5
190
  8
MYLAYER1
 10
-0.55557
 20
0
 30
-0.83147
 11
-0.57735
 21
-0.211325
 31
-0.788675
 12
-0.707107
 22
0
 32
-0.707107
 13
-0.707107
 23
0
 33
-0.707107
  0
3DFACE
  5
191
  8
MYLAYER1
 10
0
 20
-0.707107
 30
-0.707107
 11
0
 21
-0.83147
 31
-0.55557
 12
-0.211325
 22
-0.788675
 32
-0.57735
 13
-0.211325
 23
-0.788675
 33
-0.57735
  0
3DFACE
  5
192
  8
MYLAYER1
 10
0
 20
-0.83147
 30
-0.55557
 11
0
 21
-0.92388
 31
-0.382683
 12
-0.208847
 22
-0.89032
 32
-0.404615
 13
-0.208847
 23
-0.89032
 33
-0.404615
  0
3DFACE
  5
193
  8
MYLAYER1
 10
-0.211325
 20
-0.788675
 30
-0.57735
 11
0
 21
-0.83147
 31
-0.55557
 12
-0.208847
 22
-0.89032
 32
-0.404615
 13
-0.208847
 23
-0.89032
 33
-0.404615
  0
3DFACE
  5
194
  8
MYLAYER1
 10
-0.211325
 20
-0.788675
 30
-0.57735
 11
-0.208847
 21
-0.89032
 31
-0.404615
 12
-0.408248
 22
-0.816497
 32
-0.408248
 13
-0.408248
 23
-0.816497
 33
-0.408248
  0
3DFACE
  5
195
  8
MYLAYER1
 10
0
 20
-0.92388
 30
-0.382683
 11
0
 21
-0.980785
 31
-0.19509
 12
-0.198757
 22
-0.959683
 32
-0.198757
 13
-0.198757
 23
-0.959683
 33
-0.198757
  0
3DFACE
  5
196
  8
MYLAYER1
 10
0
 20
-0.980785
 30
-0.19509
 11
0
 21
-1
 31
0
 12
-0.19509
 22
-0.980785
 32
0
 13
-0.19509
 23
-0.980785
 33
0
  0
3DFACE
  5
197
  8
MYLAYER1
 10
-0.198757
 20
-0.959683
 30
-0.198757
 11
0
 21
-0.980785
 31
-0.19509
 12
-0.19509
 22
-0.980785
 32
0
 13
-0.19509
 23
-0.980785
 33
0
  0
3DFACE
  5
198
  8
MYLAYER1
 10
-0.198757
 20
-0.959683
 30
-0.198757
 11
-0.19509
 21
-0.980785
 31
0
 12
-0.382683
 22
-0.92388
 32
0
 13
-0.382683
 23
-0.92388
 33
0
  0
3DFACE
  5
199
  8
MYLAYER1
 10
-0.408248
 20
-0.816497
 30
-0.408248
 11
-0.208847
 21
-0.89032
 31
-0.404615
 12
-0.404615
 22
-0.89032
 32
-0.208847
 13
-0.404615
 23
-0.89032
 33
-0.208847
  0
3DFACE
  5
19a
  8
MYLAYER1
 10
-0.208847
 20
-0.89032
 30
-0.404615
 11
0
 21
-0.92388
 31
-0.382683
 12
-0.198757
 22
-0.959683
 32
-0.198757
 13
-0.198757
 23
-0.959683
 33
-0.198757
  0
3DFACE
  5
19b
  8
MYLAYER1
 10
-0.404615
 20
-0.89032
 30
-0.208847
 11
-0.208847
 21
-0.89032
 31
-0.404615
 12
-0.198757
 22
-0.959683
 32
-0.198757
 13
-0.198757
 23
-0.959683
 33
-0.198757
  0
3DFACE
  5
19c
  8
MYLAYER1
 10
-0.404615
 20
-0.89032
 30
-0.208847
 11
-0.198757
 21
-0.959683
 31
-0.198757
 12
-0.382683
 22
-0.92388
 32
0
 13
-0.382683
 23
-0.92388
 33
0
  0
3DFACE
  5
19d
  8
MYLAYER1
 10
-0.408248
 20
-0.816497
 30
-0.408248
 11
-0.404615
 21
-0.89032
 31
-0.208847
 12
-0.57735
 22
-0.788675
 32
-0.211325
 13
-0.57735
 23
-0.788675
 33
-0.211325
  0
3DFACE
  5
19e
  8
MYLAYER1
 10
-0.404615
 20
-0.89032
 30
-0.208847
 11
-0.382683
 21
-0.92388
 31
0
 12
-0.55557
 22
-0.83147
 32
0
 13
-0.55557
 23
-0.83147
 33
0
  0
3DFACE
  5
19f
  8
MYLAYER1
 10
-0.57735
 20
-0.788675
 30
-0.211325
 11
-0.404615
 21
-0.89032
 31
-0.208847
 12
-0.55557
 22
-0.83147
 32
0
 13
-0.55557
 23
-0.83147
 33
0
  0
3DFACE
  5
1a0
  8
MYLAYER1
 10
-0.57735
 20
-0.788675
 30
-0.211325
 11
-0.55557
 21
-0.83147
 31
0
 12
-0.707107
 22
-0.707107
 32
0
 13
-0.707107
 23
-0.707107
 33
0
  0
3DFACE
  5
1a1
  8
MYLAYER1
 10
-0.707107
 20
0
 30
-0.707107
 11
-0.57735
 21
-0.211325
 31
-0.788675
 12
-0.788675
 22
-0.211325
 32
-0.57735
 13
-0.788675
 23
-0.211325
 33
-0.57735
  0
3DFACE
  5
1a2
  8
MYLAYER1
 10
-0.57735
 20
-0.211325
 30
-0.788675
 11
-0.408248
 21
-0.408248
 31
-0.816497
 12
-0.639602
 22
-0.426401
 32
-0.639602
 13
-0.639602
 23
-0.426401
 33
-0.639602
  0
3DFACE
  5
1a3
  8
MYLAYER1
 10
-0.788675
 20
-0.211325
 30
-0.57735
 11
-0.57735
 21
-0.211325
 31
-0.788675
 12
-0.639602
 22
-0.426401
 32
-0.639602
 13
-0.639602
 23
-0.426401
 33
-0.639602
  0
3DFACE
  5
1a4
  8
MYLAYER1
 10
-0.788675
 20
-0.211325
 30
-0.57735
 11
-0.639602
 21
-0.426401
 31
-0.639602
 12
-0.816497
 22
-0.408248
 32
-0.408248
 13
-0.816497
 23
-0.408248
 33
-0.408248
  0
3DFACE
  5
1a5
  8
MYLAYER1
 10
-0.408248
 20
-0.408248
 30
-0.816497
 11
-0.211325
 21
-0.57735
 31
-0.788675
 12
-0.426401
 22
-0.639602
 32
-0.639602
 13
-0.426401
 23
-0.639602
 33
-0.639602
  0
3DFACE
  5
1a6
  8
MYLAYER1
 10
-0.211325
 20
-0.57735
 30
-0.788675
 11
0
 21
-0.707107
 31
-0.707107
 12
-0.211325
 22
-0.788675
 32
-0.57735
 13
-0.211325
 23
-0.788675
 33
-0.57735
  0
3DFACE
  5
1a7
  8
MYLAYER1
 10
-0.426401
 20
-0.639602
 30
-0.639602
 11
-0.211325
 21
-0.57735
 31
-0.788675
 12
-0.211325
 22
-0.788675
 32
-0.57735
 13
-0.211325
 23
-0.788675
 33
-0.57735
  0
3DFACE
  5
1a8
  8
MYLAYER1
 10
-0.426401
 20
-0.639602
 30
-0.639602
 11
-0.211325
 21
-0.788675
 31
-0.57735
 12
-0.408248
 22
-0.816497
 32
-0.408248
 13
-0.408248
 23
-0.816497
 33
-0.408248
  0
3DFACE
  5
1a9
  8
MYLAYER1
 10
-0.816497
 20
-0.408248
 30
-0.408248
 11
-0.639602
 21
-0.426401
 31
-0.639602
 12
-0.639602
 22
-0.639602
 32
-0.426401
 13
-0.639602
 23
-0.639602
 33
-0.426401
  0
3DFACE
  5
1aa
  8
MYLAYER1
 10
-0.639602
 20
-0.426401
 30
-0.639602
 11
-0.408248
 21
-0.408248
 31
-0.816497
 12
-0.426401
 22
-0.639602
 32
-0.639602
 13
-0.426401
 23
-0.639602
 33
-0.639602
  0
3DFACE
  5
1ab
  8
MYLAYER1
 10
-0.639602
 20
-0.639602
 30
-0.426401
 11
-0.639602
 21
-0.426401
 31
-0.639602
 12
-0.426401
 22
-0.639602
 32
-0.639602
 13
-0.426401
 23
-0.639602
 33
-0.639602
  0
3DFACE
  5
1ac
  8
MYLAYER1
 10
-0.639602
 20
-0.639602
 30
-0.426401
 11
-0.426401
 21
-0.639602
 31
-0.639602
 12
-0.408248
 22
-0.816497
 32
-0.408248
 13
-0.408248
 23
-0.816497
 33
-0.408248
  0
3DFACE
  5
1ad
  8
MYLAYER1
 10
-0.816497
 20
-0.408248
 30
-0.408248
 11
-0.639602
 21
-0.639602
 31
-0.426401
 12
-0.788675
 22
-0.57735
 32
-0.211325
 13
-0.788675
 23
-0.57735
 33
-0.211325
  0
3DFACE
  5
1ae
  8
MYLAYER1
 10
-0.639602
 20
-0.639602
 30
-0.426401
 11
-0.408248
 21
-0.816497
 31
-0.408248
 12
-0.57735
 22
-0.788675
 32
-0.211325
 13
-0.57735
 23
-0.788675
 33
-0.211325
  0
3DFACE
  5
1af
  8
MYLAYER1
 10
-0.788675
 20
-0.57735
 30
-0.211325
 11
-0.639602
 21
-0.639602
 31
-0.426401
 12
-0.57735
 22
-0.788675
 32
-0.211325
 13
-0.57735
 23
-0.788675
 33
-0.211325
  0
3DFACE
  5
1b0
  8
MYLAYER1
 10
-0.788675
 20
-0.57735
 30
-0.211325
 11
-0.57735
 21
-0.788675
 31
-0.211325
 12
-0.707107
 22
-0.707107
 32
0
 13
-0.707107
 23
-0.707107
 33
0
  0
3DFACE
  5
1b1
  8
MYLAYER1
 10
-0.707107
 20
0
 30
-0.707107
 11
-0.788675
 21
-0.211325
 31
-0.57735
 12
-0.83147
 22
0
 32
-0.55557
 13
-0.83147
 23
0
 33
-0.55557
  0
3DFACE
  5
1b2
  8
MYLAYER1
 10
-0.788675
 20
-0.211325
 30
-0.57735
 11
-0.816497
 21
-0.408248
 31
-0.408248
 12
-0.89032
 22
-0.208847
 32
-0.404615
 13
-0.89032
 23
-0.208847
 33
-0.404615
  0
3DFACE
  5
1b3
  8
MYLAYER1
 10
-0.83147
 20
0
 30
-0.55557
 11
-0.788675
 21
-0.211325
 31
-0.57735
 12
-0.89032
 22
-0.208847
 32
-0.404615
 13
-0.89032
 23
-0.208847
 33
-0.404615
  0
3DFACE
  5
1b4
  8
MYLAYER1
 10
-0.83147
 20
0
 30
-0.55557
 11
-0.89032
 21
-0.208847
 31
-0.404615
 12
-0.92388
 22
0
 32
-0.382683
 13
-0.92388
 23
0
 33
-0.382683
  0
3DFACE
  5
1b5
  8
MYLAYER1
 10
-0.816497
 20
-0.408248
 30
-0.408248
 11
-0.788675
 21
-0.57735
 31
-0.211325
 12
-0.89032
 22
-0.404615
 32
-0.208847
 13
-0.89032
 23
-0.404615
 33
-0.208847
  0
3DFACE
  5
1b6
  8
MYLAYER1
 10
-0.788675
 20
-0.57735
 30
-0.211325
 11
-0.707107
 21
-0.707107
 31
0
 12
-0.83147
 22
-0.55557
 32
0
 13
-0.83147
 23
-0.55557
 33
0
  0
3DFACE
  5
1b7
  8
MYLAYER1
 10
-0.89032
 20
-0.404615
 30
-0.208847
 11
-0.788675
 21
-0.57735
 31
-0.211325
 12
-0.83147
 22
-0.55557
 32
0
 13
-0.83147
 23
-0.55557
 33
0
  0
3DFACE
  5
1b8
  8
MYLAYER1
 10
-0.89032
 20
-0.404615
 30
-0.208847
 11
-0.83147
 21
-0.55557
 31
0
 12
-0.92388
 22
-0.382683
 32
0
 13
-0.92388
 23
-0.382683
 33
0
  0
3DFACE
  5
1b9
  8
MYLAYER1
 10
-0.92388
 20
0
 30
-0.382683
 11
-0.89032
 21
-0.208847
 31
-0.404615
 12
-0.959683
 22
-0.198757
 32
-0.198757
 13
-0.959683
 23
-0.198757
 33
-0.198757
  0
3DFACE
  5
1ba
  8
MYLAYER1
 10
-0.89032
 20
-0.208847
 30
-0.404615
 11
-0.816497
 21
-0.408248
 31
-0.408248
 12
-0.89032
 22
-0.404615
 32
-0.208847
 13
-0.89032
 23
-0.404615
 33
-0.208847
  0
3DFACE
  5
1bb
  8
MYLAYER1
 10
-0.959683
 20
-0.198757
 30
-0.198757
 11
-0.89032
 21
-0.208847
 31
-0.404615
 12
-0.89032
 22
-0.404615
 32
-0.208847
 13
-0.89032
 23
-0.404615
 33
-0.208847
  0
3DFACE
  5
1bc
  8
MYLAYER1
 10
-0.959683
 20
-0.198757
 30
-0.198757
 11
-0.89032
 21
-0.404615
 31
-0.208847
 12
-0.92388
 22
-0.382683
 32
0
 13
-0.92388
 23
-0.382683
 33
0
  0
3DFACE
  5
1bd
  8
MYLAYER1
 10
-0.92388
 20
0
 30
-0.382683
 11
-0.959683
 21
-0.198757
 31
-0.198757
 12
-0.980785
 22
0
 32
-0.19509
 13
-0.980785
 23
0
 33
-0.19509
  0
3DFACE
  5
1be
  8
MYLAYER1
 10
-0.959683
 20
-0.198757
 30
-0.198757
 11
-0.92388
 21
-0.382683
 31
0
 12
-0.980785
 22
-0.19509
 32
0
 13
-0.980785
 23
-0.19509
 33
0
  0
3DFACE
  5
1bf
  8
MYLAYER1
 10
-0.980785
 20
0
 30
-0.19509
 11
-0.959683
 21
-0.198757
 31
-0.198757
 12
-0.980785
 22
-0.19509
 32
0
 13
-0.980785
 23
-0.19509
 33
0
  0
3DFACE
  5
1c0
  8
MYLAYER1
 10
-0.980785
 20
0
 30
-0.19509
 11
-0.980785
 21
-0.19509
 31
0
 12
-1
 22
0
 32
0
 13
-1
 23
0
 33
0
  0
3DFACE
  5
1c1
  8
MYLAYER1
 10
0
 20
0
 30
-1
 11
0.19509
 21
0
 31
-0.980785
 12
0
 22
-0.19509
 32
-0.980785
 13
0
 23
-0.19509
 33
-0.980785
  0
3DFACE
  5
1c2
  8
MYLAYER1
 10
0.19509
 20
0
 30
-0.980785
 11
0.382683
 21
0
 31
-0.92388
 12
0.198757
 22
-0.198757
 32
-0.959683
 13
0.198757
 23
-0.198757
 33
-0.959683
  0
3DFACE
  5
1c3
  8
MYLAYER1
 10
0
 20
-0.19509
 30
-0.980785
 11
0.19509
 21
0
 31
-0.980785
 12
0.198757
 22
-0.198757
 32
-0.959683
 13
0.198757
 23
-0.198757
 33
-0.959683
  0
3DFACE
  5
1c4
  8
MYLAYER1
 10
0
 20
-0.19509
 30
-0.980785
 11
0.198757
 21
-0.198757
 31
-0.959683
 12
0
 22
-0.382683
 32
-0.92388
 13
0
 23
-0.382683
 33
-0.92388
  0
3DFACE
  5
1c5
  8
MYLAYER1
 10
0.382683
 20
0
 30
-0.92388
 11
0.55557
 21
0
 31
-0.83147
 12
0.404615
 22
-0.208847
 32
-0.89032
 13
0.404615
 23
-0.208847
 33
-0.89032
  0
3DFACE
  5
1c6
  8
MYLAYER1
 10
0.55557
 20
0
 30
-0.83147
 11
0.707107
 21
0
 31
-0.707107
 12
0.57735
 22
-0.211325
 32
-0.788675
 13
0.57735
 23
-0.211325
 33
-0.788675
  0
3DFACE
  5
1c7
  8
MYLAYER1
 10
0.404615
 20
-0.208847
 30
-0.89032
 11
0.55557
 21
0
 31
-0.83147
 12
0.57735
 22
-0.211325
 32
-0.788675
 13
0.57735
 23
-0.211325
 33
-0.788675
  0
3DFACE
  5
1c8
  8
MYLAYER1
 10
0.404615
 20
-0.208847
 30
-0.89032
 11
0.57735
 21
-0.211325
 31
-0.788675
 12
0.408248
 22
-0.408248
 32
-0.816497
 13
0.408248
 23
-0.408248
 33
-0.816497
  0
3DFACE
  5
1c9
  8
MYLAYER1
 10
0
 20
-0.382683
 30
-0.92388
 11
0.198757
 21
-0.198757
 31
-0.959683
 12
0.208847
 22
-0.404615
 32
-0.89032
 13
0.208847
 23
-0.404615
 33
-0.89032
  0
3DFACE
  5
1ca
  8
MYLAYER1
 10
0.198757
 20
-0.198757
 30
-0.959683
 11
0.382683
 21
0
 31
-0.92388
 12
0.404615
 22
-0.208847
 32
-0.89032
 13
0.404615
 23
-0.208847
 33
-0.89032
  0
3DFACE
  5
1cb
  8
MYLAYER1
 10
0.208847
 20
-0.404615
 30
-0.89032
 11
0.198757
 21
-0.198757
 31
-0.959683
 12
0.404615
 22
-0.208847
 32
-0.89032
 13
0.404615
 23
-0.208847
 33
-0.89032
  0
3DFACE
  5
1cc
  8
MYLAYER1
 10
0.208847
 20
-0.404615
 30
-0.89032
 11
0.404615
 21
-0.208847
 31
-0.89032
 12
0.408248
 22
-0.408248
 32
-0.816497
 13
0.408248
 23
-0.408248
 33
-0.816497
  0
3DFACE
  5
1cd
  8
MYLAYER1
 10
0
 20
-0.382683
 30
-0.92388
 11
0.208847
 21
-0.404615
 31
-0.89032
 12
0
 22
-0.55557
 32
-0.83147
 13
0
 23
-0.55557
 33
-0.83147
  0
3DFACE
  5
1ce
  8
MYLAYER1
 10
0.208847
 20
-0.404615
 30
-0.89032
 11
0.408248
 21
-0.408248
 31
-0.816497
 12
0.211325
 22
-0.57735
 32
-0.788675
 13
0.211325
 23
-0.57735
 33
-0.788675
  0
3DFACE
  5
1cf
  8
MYLAYER1
 10
0
 20
-0.55557
 30
-0.83147
 11
0.208847
 21
-0.404615
 31
-0.89032
 12
0.211325
 22
-0.57735
 32
-0.788675
 13
0.211325
 23
-0.57735
 33
-0.788675
  0
3DFACE
  5
1d0
  8
MYLAYER1
 10
0
 20
-0.55557
 30
-0.83147
 11
0.211325
 21
-0.57735
 31
-0.788675
 12
0
 22
-0.707107
 32
-0.707107
 13
0
 23
-0.707107
 33
-0.707107
  0
3DFACE
  5
1d1
  8
MYLAYER1
 10
0.707107
 20
0
 30
-0.707107
 11
0.83147
 21
0
 31
-0.55557
 12
0.788675
 22
-0.211325
 32
-0.57735
 13
0.788675
 23
-0.211325
 33
-0.57735
  0
3DFACE
  5
1d2
  8
MYLAYER1
 10
0.83147
 20
0
 30
-0.55557
 11
0.92388
 21
0
 31
-0.382683
 12
0.89032
 22
-0.208847
 32
-0.404615
 13
0.89032
 23
-0.208847
 33
-0.404615
  0
3DFACE
  5
1d3
  8
MYLAYER1
 10
0.788675
 20
-0.211325
 30
-0.57735
 11
0.83147
 21
0
 31
-0.55557
 12
0.89032
 22
-0.208847
 32
-0.404615
 13
0.89032
 23
-0.208847
 33
-0.404615
  0
3DFACE
  5
1d4
  8
MYLAYER1
 10
0.788675
 20
-0.211325
 30
-0.57735
 11
0.89032
 21
-0.208847
 31
-0.404615
 12
0.816497
 22
-0.408248
 32
-0.408248
 13
0.816497
 23
-0.408248
 33
-0.408248
  0
3DFACE
  5
1d5
  8
MYLAYER1
 10
0.92388
 20
0
 30
-0.382683
 11
0.980785
 21
0
 31
-0.19509
 12
0.959683
 22
-0.198757
 32
-0.198757
 13
0.959683
 23
-0.198757
 33
-0.198757
  0
3DFACE
  5
1d6
  8
MYLAYER1
 10
0.980785
 20
0
 30
-0.19509
 11
1
 21
0
 31
0
 12
0.980785
 22
-0.19509
 32
0
 13
0.980785
 23
-0.19509
 33
0
  0
3DFACE
  5
1d7
  8
MYLAYER1
 10
0.959683
 20
-0.198757
 30
-0.198757
 11
0.980785
 21
0
 31
-0.19509
 12
0.980785
 22
-0.19509
 32
0
 13
0.980785
 23
-0.19509
 33
0
  0
3DFACE
  5
1d8
  8
MYLAYER1
 10
0.959683
 20
-0.198757
 30
-0.198757
 11
0.980785
 21
-0.19509
 31
0
 12
0.92388
 22
-0.382683
 32
0
 13
0.92388
 23
-0.382683
 33
0
  0
3DFACE
  5
1d9
  8
MYLAYER1
 10
0.816497
 20
-0.408248
 30
-0.408248
 11
0.89032
 21
-0.208847
 31
-0.404615
 12
0.89032
 22
-0.404615
 32
-0.208847
 13
0.89032
 23
-0.404615
 33
-0.208847
  0
3DFACE
  5
1da
  8
MYLAYER1
 10
0.89032
 20
-0.208847
 30
-0.404615
 11
0.92388
 21
0
 31
-0.382683
 12
0.959683
 22
-0.198757
 32
-0.198757
 13
0.959683
 23
-0.198757
 33
-0.198757
  0
3DFACE
  5
1db
  8
MYLAYER1
 10
0.89032
 20
-0.404615
 30
-0.208847
 11
0.89032
 21
-0.208847
 31
-0.404615
 12
0.959683
 22
-0.198757
 32
-0.198757
 13
0.959683
 23
-0.198757
 33
-0.198757
  0
3DFACE
  5
1dc
  8
MYLAYER1
 10
0.89032
 20
-0.404615
 30
-0.208847
 11
0.959683
 21
-0.198757
 31
-0.198757
 12
0.92388
 22
-0.382683
 32
0
 13
0.92388
 23
-0.382683
 33
0
  0
3DFACE
  5
1dd
  8
MYLAYER1
 10
0.816497
 20
-0.408248
 30
-0.408248
 11
0.89032
 21
-0.404615
 31
-0.208847
 12
0.788675
 22
-0.57735
 32
-0.211325
 13
0.788675
 23
-0.57735
 33
-0.211325
  0
3DFACE
  5
1de
  8
MYLAYER1
 10
0.89032
 20
-0.404615
 30
-0.208847
 11
0.92388
 21
-0.382683
 31
0
 12
0.83147
 22
-0.55557
 32
0
 13
0.83147
 23
-0.55557
 33
0
  0
3DFACE
  5
1df
  8
MYLAYER1
 10
0.788675
 20
-0.57735
 30
-0.211325
 11
0.89032
 21
-0.404615
 31
-0.208847
 12
0.83147
 22
-0.55557
 32
0
 13
0.83147
 23
-0.55557
 33
0
  0
3DFACE
  5
1e0
  8
MYLAYER1
 10
0.788675
 20
-0.57735
 30
-0.211325
 11
0.83147
 21
-0.55557
 31
0
 12
0.707107
 22
-0.707107
 32
0
 13
0.707107
 23
-0.707107
 33
0
  0
3DFACE
  5
1e1
  8
MYLAYER1
 10
0
 20
-0.707107
 30
-0.707107
 11
0.211325
 21
-0.57735
 31
-0.788675
 12
0.211325
 22
-0.788675
 32
-0.57735
 13
0.211325
 23
-0.788675
 33
-0.57735
  0
3DFACE
  5
1e2
  8
MYLAYER1
 10
0.211325
 20
-0.57735
 30
-0.788675
 11
0.408248
 21
-0.408248
 31
-0.816497
 12
0.426401
 22
-0.639602
 32
-0.639602
 13
0.426401
 23
-0.639602
 33
-0.639602
  0
3DFACE
  5
1e3
  8
MYLAYER1
 10
0.211325
 20
-0.788675
 30
-0.57735
 11
0.211325
 21
-0.57735
 31
-0.788675
 12
0.426401
 22
-0.639602
 32
-0.639602
 13
0.426401
 23
-0.639602
 33
-0.639602
  0
3DFACE
  5
1e4
  8
MYLAYER1
 10
0.211325
 20
-0.788675
 30
-0.57735
 11
0.426401
 21
-0.639602
 31
-0.639602
 12
0.408248
 22
-0.816497
 32
-0.408248
 13
0.408248
 23
-0.816497
 33
-0.408248
  0
3DFACE
  5
1e5
  8
MYLAYER1
 10
0.408248
 20
-0.408248
 30
-0.816497
 11
0.57735
 21
-0.211325
 31
-0.788675
 12
0.639602
 22
-0.426401
 32
-0.639602
 13
0.639602
 23
-0.426401
 33
-0.639602
  0
3DFACE
  5
1e6
  8
MYLAYER1
 10
0.57735
 20
-0.211325
 30
-0.788675
 11
0.707107
 21
0
 31
-0.707107
 12
0.788675
 22
-0.211325
 32
-0.57735
 13
0.788675
 23
-0.211325
 33
-0.57735
  0
3DFACE
  5
1e7
  8
MYLAYER1
 10
0.639602
 20
-0.426401
 30
-0.639602
 11
0.57735
 21
-0.211325
 31
-0.788675
 12
0.788675
 22
-0.211325
 32
-0.57735
 13
0.788675
 23
-0.211325
 33
-0.57735
  0
3DFACE
  5
1e8
  8
MYLAYER1
 10
0.639602
 20
-0.426401
 30
-0.639602
 11
0.788675
 21
-0.211325
 31
-0.57735
 12
0.816497
 22
-0.408248
 32
-0.408248
 13
0.816497
 23
-0.408248
 33
-0.408248
  0
3DFACE
  5
1e9
  8
MYLAYER1
 10
0.408248
 20
-0.816497
 30
-0.408248
 11
0.426401
 21
-0.639602
 31
-0.639602
 12
0.639602
 22
-0.639602
 32
-0.426401
 13
0.639602
 23
-0.639602
 33
-0.426401
  0
3DFACE
  5
1ea
  8
MYLAYER1
 10
0.426401
 20
-0.639602
 30
-0.639602
 11
0.408248
 21
-0.408248
 31
-0.816497
 12
0.639602
 22
-0.426401
 32
-0.639602
 13
0.639602
 23
-0.426401
 33
-0.639602
  0
3DFACE
  5
1eb
  8
MYLAYER1
 10
0.639602
 20
-0.639602
 30
-0.426401
 11
0.426401
 21
-0.639602
 31
-0.639602
 12
0.639602
 22
-0.426401
 32
-0.639602
 13
0.639602
 23
-0.426401
 33
-0.639602
  0
3DFACE
  5
1ec
  8
MYLAYER1
 10
0.639602
 20
-0.639602
 30
-0.426401
 11
0.639602
 21
-0.426401
 31
-0.639602
 12
0.816497
 22
-0.408248
 32
-0.408248
 13
0.816497
 23
-0.408248
 33
-0.408248
  0
3DFACE
  5
1ed
  8
MYLAYER1
 10
0.408248
 20
-0.816497
 30
-0.408248
 11
0.639602
 21
-0.639602
 31
-0.426401
 12
0.57735
 22
-0.788675
 32
-0.211325
 13
0.57735
 23
-0.788675
 33
-0.211325
  0
3DFACE
  5
1ee
  8
MYLAYER1
 10
0.639602
 20
-0.639602
 30
-0.426401
 11
0.816497
 21
-0.408248
 31
-0.408248
 12
0.788675
 22
-0.57735
 32
-0.211325
 13
0.788675
 23
-0.57735
 33
-0.211325
  0
3DFACE
  5
1ef
  8
MYLAYER1
 10
0.57735
 20
-0.788675
 30
-0.211325
 11
0.639602
 21
-0.639602
 31
-0.426401
 12
0.788675
 22
-0.57735
 32
-0.211325
 13
0.788675
 23
-0.57735
 33
-0.211325
  0
3DFACE
  5
1f0
  8
MYLAYER1
 10
0.57735
 20
-0.788675
 30
-0.211325
 11
0.788675
 21
-0.57735
 31
-0.211325
 12
0.707107
 22
-0.707107
 32
0
 13
0.707107
 23
-0.707107
 33
0
  0
3DFACE
  5
1f1
  8
MYLAYER1
 10
0
 20
-0.707107
 30
-0.707107
 11
0.211325
 21
-0.788675
 31
-0.57735
 12
0
 22
-0.83147
 32
-0.55557
 13
0
 23
-0.83147
 33
-0.55557
  0
3DFACE
  5
1f2
  8
MYLAYER1
 10
0.211325
 20
-0.788675
 30
-0.57735
 11
0.408248
 21
-0.816497
 31
-0.408248
 12
0.208847
 22
-0.89032
 32
-0.404615
 13
0.208847
 23
-0.89032
 33
-0.404615
  0
3DFACE
  5
1f3
  8
MYLAYER1
 10
0
 20
-0.83147
 30
-0.55557
 11
0.211325
 21
-0.788675
 31
-0.57735
 12
0.208847
 22
-0.89032
 32
-0.404615
 13
0.208847
 23
-0.89032
 33
-0.404615
  0
3DFACE
  5
1f4
  8
MYLAYER1
 10
0
 20
-0.83147
 30
-0.55557
 11
0.208847
 21
-0.89032
 31
-0.404615
 12
0
 22
-0.92388
 32
-0.382683
 13
0
 23
-0.92388
 33
-0.382683
  0
3DFACE
  5
1f5
  8
MYLAYER1
 10
0.408248
 20
-0.816497
 30
-0.408248
 11
0.57735
 21
-0.788675
 31
-0.211325
 12
0.404615
 22
-0.89032
 32
-0.208847
 13
0.404615
 23
-0.89032
 33
-0.208847
  0
3DFACE
  5
1f6
  8
MYLAYER1
 10
0.57735
 20
-0.788675
 30
-0.211325
 11
0.707107
 21
-0.707107
 31
0
 12
0.55557
 22
-0.83147
 32
0
 13
0.55557
 23
-0.83147
 33
0
  0
3DFACE
  5
1f7
  8
MYLAYER1
 10
0.404615
 20
-0.89032
 30
-0.208847
 11
0.57735
 21
-0.788675
 31
-0.211325
 12
0.55557
 22
-0.83147
 32
0
 13
0.55557
 23
-0.83147
 33
0
  0
3DFACE
  5
1f8
  8
MYLAYER1
 10
0.404615
 20
-0.89032
 30
-0.208847
 11
0.55557
 21
-0.83147
 31
0
 12
0.382683
 22
-0.92388
 32
0
 13
0.382683
 23
-0.92388
 33
0
  0
3DFACE
  5
1f9
  8
MYLAYER1
 10
0
 20
-0.92388
 30
-0.382683
 11
0.208847
 21
-0.89032
 31
-0.404615
 12
0.198757
 22
-0.959683
 32
-0.198757
 13
0.198757
 23
-0.959683
 33
-0.198757
  0
3DFACE
  5
1fa
  8
MYLAYER1
 10
0.208847
 20
-0.89032
 30
-0.404615
 11
0.408248
 21
-0.816497
 31
-0.408248
 12
0.404615
 22
-0.89032
 32
-0.208847
 13
0.404615
 23
-0.89032
 33
-0.208847
  0
3DFACE
  5
1fb
  8
MYLAYER1
 10
0.198757
 20
-0.959683
 30
-0.198757
 11
0.208847
 21
-0.89032
 31
-0.404615
 12
0.404615
 22
-0.89032
 32
-0.208847
 13
0.404615
 23
-0.89032
 33
-0.208847
  0
3DFACE
  5
1fc
  8
MYLAYER1
 10
0.198757
 20
-0.959683
 30
-0.198757
 11
0.404615
 21
-0.89032
 31
-0.208847
 12
0.382683
 22
-0.92388
 32
0
 13
0.382683
 23
-0.92388
 33
0
  0
3DFACE
  5
1fd
  8
MYLAYER1
 10
0
 20
-0.92388
 30
-0.382683
 11
0.198757
 21
-0.959683
 31
-0.198757
 12
0
 22
-0.980785
 32
-0.19509
 13
0
 23
-0.980785
 33
-0.19509
  0
3DFACE
  5
1fe
  8
MYLAYER1
 10
0.198757
 20
-0.959683
 30
-0.198757
 11
0.382683
 21
-0.92388
 31
0
 12
0.19509
 22
-0.980785
 32
0
 13
0.19509
 23
-0.980785
 33
0
  0
3DFACE
  5
1ff
  8
MYLAYER1
 10
0
 20
-0.980785
 30
-0.19509
 11
0.198757
 21
-0.959683
 31
-0.198757
 12
0.19509
 22
-0.980785
 32
0
 13
0.19509
 23
-0.980785
 33
0
  0
3DFACE
  5
200
  8
MYLAYER1
 10
0
 20
-0.980785
 30
-0.19509
 11
0.19509
 21
-0.980785
 31
0
 12
0
 22
-1
 32
0
 13
0
 23
-1
 33
0
  0
ENDSEC
  0
EOF
